<svg width="1392" height="499" viewBox="0 0 1392 499" fill="none" xmlns="http://www.w3.org/2000/svg">
<g style="mix-blend-mode:lighten" opacity="0.14">
<g clip-path="url(#clip0_5445_3466)">
<path d="M147.086 59.2824V-8H214.412V59.2824L181.463 25.6657L180.749 24.937L180.035 25.6657L147.086 59.2824Z" fill="#4F29F3" fill-opacity="0.2" stroke="#4F29F3" stroke-width="2"/>
<path d="M285.083 13.5771H239.86V-8H307.187V60.7313H239.86V39.1486H285.083H286.083V38.1486V14.5771V13.5771H285.083Z" fill="#4F29F3" fill-opacity="0.2" stroke="#4F29F3" stroke-width="2"/>
<path d="M87.9756 37.1525H86.9756V38.1525V60.724H54.3125V39.1525H70.6413H71.6413V38.1525V15.5754H87.9756H88.9756V14.5754V-7.99609H121.639V13.5754H105.304H104.304V14.5754V37.1525H87.9756Z" fill="#4F29F3" fill-opacity="0.2" stroke="#4F29F3" stroke-width="2"/>
<path d="M-6.39822 13.6743L-6.39932 13.6744C-12.0092 14.3868 -16.5202 18.9815 -17.238 24.6713C-18.2963 33.0282 -11.3846 40.1281 -3.12728 39.0396C2.48206 38.3029 6.97581 33.6844 7.65859 27.9877C8.6694 19.6724 1.81548 12.6404 -6.39822 13.6743ZM-4.79005 60.7313C-23.3649 60.7313 -38.4531 45.3664 -38.4531 26.3656C-38.4531 7.36488 -23.3649 -8 -4.79005 -8C13.7794 -8 28.873 7.36499 28.873 26.3656C28.873 45.3664 13.7848 60.7313 -4.79005 60.7313Z" fill="#4F29F3" fill-opacity="0.2" stroke="#4F29F3" stroke-width="2"/>
</g>
<g clip-path="url(#clip1_5445_3466)">
<path d="M147.089 278.829V211.547H214.415V278.829L181.466 245.213L180.752 244.484L180.038 245.213L147.089 278.829Z" fill="#4F29F3" fill-opacity="0.2" stroke="#4F29F3" stroke-width="2"/>
<path d="M285.084 233.129H239.861V211.552H307.188V280.283H239.861V258.7H285.084H286.084V257.7V234.129V233.129H285.084Z" fill="#4F29F3" fill-opacity="0.2" stroke="#4F29F3" stroke-width="2"/>
<path d="M87.9795 256.701H86.9795V257.701V280.273H54.3164V258.701H70.6452H71.6452V257.701V235.124H87.9795H88.9795V234.124V211.553H121.643V233.124H105.308H104.308V234.124V256.701H87.9795Z" fill="#4F29F3" fill-opacity="0.2" stroke="#4F29F3" stroke-width="2"/>
<path d="M-6.3992 233.221L-6.4003 233.221C-12.0101 233.934 -16.5211 238.528 -17.239 244.218C-18.2973 252.575 -11.3856 259.675 -3.12825 258.586C2.48108 257.85 6.97483 253.231 7.65762 247.535C8.66842 239.219 1.8145 232.187 -6.3992 233.221ZM-4.79103 280.278C-23.3659 280.278 -38.4541 264.913 -38.4541 245.913C-38.4541 226.912 -23.3659 211.547 -4.79103 211.547C13.7785 211.547 28.8721 226.912 28.8721 245.913C28.8721 264.913 13.7838 280.278 -4.79103 280.278Z" fill="#4F29F3" fill-opacity="0.2" stroke="#4F29F3" stroke-width="2"/>
</g>
<g clip-path="url(#clip2_5445_3466)">
<path d="M147.084 496.55V429.268H214.41V496.55L181.461 462.933L180.747 462.205L180.033 462.933L147.084 496.55Z" fill="#4F29F3" fill-opacity="0.2" stroke="#4F29F3" stroke-width="2"/>
<path d="M285.079 450.845H239.856V429.268H307.183V497.999H239.856V476.416H285.079H286.079V475.416V451.845V450.845H285.079Z" fill="#4F29F3" fill-opacity="0.2" stroke="#4F29F3" stroke-width="2"/>
<path d="M87.9736 474.424H86.9736V475.424V497.996H54.3105V476.424H70.6393H71.6393V475.424V452.847H87.9736H88.9736V451.847V429.275H121.637V450.847H105.302H104.302V451.847V474.424H87.9736Z" fill="#4F29F3" fill-opacity="0.2" stroke="#4F29F3" stroke-width="2"/>
<path d="M-6.40604 450.943L-6.40714 450.943C-12.017 451.655 -16.528 456.25 -17.2458 461.94C-18.3041 470.297 -11.3924 477.397 -3.13509 476.308C2.47424 475.571 6.96799 470.953 7.65078 465.256C8.66159 456.941 1.80766 449.909 -6.40604 450.943ZM-4.79787 498C-23.3727 498 -38.4609 482.635 -38.4609 463.634C-38.4609 444.633 -23.3727 429.269 -4.79787 429.269C13.7716 429.269 28.8652 444.634 28.8652 463.634C28.8652 482.635 13.777 498 -4.79787 498Z" fill="#4F29F3" fill-opacity="0.2" stroke="#4F29F3" stroke-width="2"/>
</g>
<g clip-path="url(#clip3_5445_3466)">
<path d="M243.922 169.055V101.772H311.248V169.055L278.299 135.438L277.585 134.709L276.871 135.438L243.922 169.055Z" fill="#4F29F3" fill-opacity="0.2" stroke="#4F29F3" stroke-width="2"/>
<path d="M381.915 123.354H336.692V101.777H404.019V170.509H336.692V148.926H381.915H382.915V147.926V124.354V123.354H381.915Z" fill="#4F29F3" fill-opacity="0.2" stroke="#4F29F3" stroke-width="2"/>
<path d="M184.821 146.935H183.821V147.935V170.506H151.158V148.935H167.487H168.487V147.935V125.358H184.821H185.821V124.358V101.786H218.484V123.358H202.15H201.15V124.358V146.935H184.821Z" fill="#4F29F3" fill-opacity="0.2" stroke="#4F29F3" stroke-width="2"/>
<path d="M10.8229 123.353H-34.3945V101.776H32.9316V170.508H11.8229V124.353V123.353H10.8229Z" fill="#4F29F3" fill-opacity="0.2" stroke="#4F29F3" stroke-width="2"/>
<path d="M90.4319 123.447L90.4308 123.447C84.8209 124.159 80.3099 128.754 79.5921 134.444C78.5338 142.801 85.4455 149.901 93.7028 148.812C99.3121 148.075 103.806 143.457 104.489 137.76C105.499 129.445 98.6456 122.413 90.4319 123.447ZM92.04 170.504C73.4652 170.504 58.377 155.139 58.377 136.138C58.377 117.137 73.4652 101.772 92.04 101.772C110.61 101.772 125.703 117.137 125.703 136.138C125.703 155.139 110.615 170.504 92.04 170.504Z" fill="#4F29F3" fill-opacity="0.2" stroke="#4F29F3" stroke-width="2"/>
</g>
<g clip-path="url(#clip4_5445_3466)">
<path d="M242.145 388.603V321.32H309.471V388.603L276.522 354.986L275.808 354.257L275.093 354.986L242.145 388.603Z" fill="#4F29F3" fill-opacity="0.2" stroke="#4F29F3" stroke-width="2"/>
<path d="M380.135 342.894H334.912V321.317H402.238V390.049H334.912V368.466H380.135H381.135V367.466V343.894V342.894H380.135Z" fill="#4F29F3" fill-opacity="0.2" stroke="#4F29F3" stroke-width="2"/>
<path d="M183.04 366.473H182.04V367.473V390.044H149.377V368.473H165.706H166.706V367.473V344.896H183.04H184.04V343.896V321.324H216.703V342.896H200.369H199.369V343.896V366.473H183.04Z" fill="#4F29F3" fill-opacity="0.2" stroke="#4F29F3" stroke-width="2"/>
<path d="M9.04556 342.894H-36.1719V321.317H31.1543V390.049H10.0456V343.894V342.894H9.04556Z" fill="#4F29F3" fill-opacity="0.2" stroke="#4F29F3" stroke-width="2"/>
<path d="M88.6555 342.993L88.6544 342.993C83.0445 343.705 78.5335 348.3 77.8157 353.99C76.7574 362.347 83.6691 369.446 91.9264 368.358C97.5358 367.621 102.03 363.003 102.712 357.306C103.723 348.991 96.8692 341.959 88.6555 342.993ZM90.2637 390.05C71.6888 390.05 56.6006 374.685 56.6006 355.684C56.6006 336.683 71.6888 321.318 90.2637 321.318C108.833 321.318 123.927 336.683 123.927 355.684C123.927 374.685 108.839 390.05 90.2637 390.05Z" fill="#4F29F3" fill-opacity="0.2" stroke="#4F29F3" stroke-width="2"/>
</g>
<g clip-path="url(#clip5_5445_3466)">
<path d="M435.812 -6.55111V60.7313H368.486V-6.55111L401.435 27.0656L402.149 27.7943L402.864 27.0656L435.812 -6.55111Z" fill="#4F29F3" fill-opacity="0.2" stroke="#4F29F3" stroke-width="2"/>
<path d="M739.581 59.2824V-8H806.907V59.2824L773.958 25.6657L773.244 24.937L772.53 25.6657L739.581 59.2824Z" fill="#4F29F3" fill-opacity="0.2" stroke="#4F29F3" stroke-width="2"/>
<path d="M877.579 13.5771H832.356V-8H899.683V60.7313H832.356V39.1486H877.579H878.579V38.1486V14.5771V13.5771H877.579Z" fill="#4F29F3" fill-opacity="0.2" stroke="#4F29F3" stroke-width="2"/>
<path d="M680.47 37.1545H679.47V38.1545V60.726H646.807V39.1545H663.135H664.135V38.1545V15.5774H680.47H681.47V14.5774V-7.99414H714.133V13.5774H697.799H696.799V14.5774V37.1545H680.47Z" fill="#4F29F3" fill-opacity="0.2" stroke="#4F29F3" stroke-width="2"/>
<path d="M506.475 13.5771H461.258V-8H528.584V60.7313H507.475V14.5771V13.5771H506.475Z" fill="#4F29F3" fill-opacity="0.2" stroke="#4F29F3" stroke-width="2"/>
<path d="M586.091 13.6743L586.09 13.6744C580.48 14.3868 575.969 18.9815 575.251 24.6713C574.193 33.0282 581.105 40.1281 589.362 39.0396C594.971 38.3029 599.465 33.6844 600.148 27.9877C601.159 19.6724 594.305 12.6404 586.091 13.6743ZM587.699 60.7313C569.124 60.7313 554.036 45.3664 554.036 26.3656C554.036 7.36488 569.124 -8 587.699 -8C606.269 -8 621.362 7.36499 621.362 26.3656C621.362 45.3664 606.274 60.7313 587.699 60.7313Z" fill="#4F29F3" fill-opacity="0.2" stroke="#4F29F3" stroke-width="2"/>
</g>
<g clip-path="url(#clip6_5445_3466)">
<path d="M435.817 213.001V280.283H368.491V213.001L401.44 246.617L402.154 247.346L402.868 246.617L435.817 213.001Z" fill="#4F29F3" fill-opacity="0.2" stroke="#4F29F3" stroke-width="2"/>
<path d="M739.585 278.834V211.552H806.911V278.834L773.962 245.217L773.248 244.489L772.534 245.217L739.585 278.834Z" fill="#4F29F3" fill-opacity="0.2" stroke="#4F29F3" stroke-width="2"/>
<path d="M877.58 233.132H832.357V211.555H899.684V280.286H832.357V258.703H877.58H878.58V257.703V234.132V233.132H877.58Z" fill="#4F29F3" fill-opacity="0.2" stroke="#4F29F3" stroke-width="2"/>
<path d="M680.472 256.697H679.472V257.697V280.269H646.809V258.697H663.137H664.137V257.697V235.12H680.472H681.472V234.12V211.549H714.135V233.12H697.8H696.8V234.12V256.697H680.472Z" fill="#4F29F3" fill-opacity="0.2" stroke="#4F29F3" stroke-width="2"/>
<path d="M506.476 233.133H461.259V211.556H528.585V280.287H507.476V234.133V233.133H506.476Z" fill="#4F29F3" fill-opacity="0.2" stroke="#4F29F3" stroke-width="2"/>
<path d="M586.096 233.226L586.095 233.226C580.485 233.939 575.974 238.533 575.256 244.223C574.198 252.58 581.11 259.68 589.367 258.591C594.976 257.855 599.47 253.236 600.153 247.539C601.164 239.224 594.31 232.192 586.096 233.226ZM587.704 280.283C569.129 280.283 554.041 264.918 554.041 245.917C554.041 226.917 569.129 211.552 587.704 211.552C606.274 211.552 621.367 226.917 621.367 245.917C621.367 264.918 606.279 280.283 587.704 280.283Z" fill="#4F29F3" fill-opacity="0.2" stroke="#4F29F3" stroke-width="2"/>
</g>
<g clip-path="url(#clip7_5445_3466)">
<path d="M435.816 430.72V498.003H368.49V430.72L401.439 464.337L402.153 465.066L402.867 464.337L435.816 430.72Z" fill="#4F29F3" fill-opacity="0.2" stroke="#4F29F3" stroke-width="2"/>
<path d="M739.584 496.552V429.27H806.91V496.552L773.961 462.935L773.247 462.207L772.533 462.935L739.584 496.552Z" fill="#4F29F3" fill-opacity="0.2" stroke="#4F29F3" stroke-width="2"/>
<path d="M877.583 450.847H832.36V429.27H899.687V498.001H832.36V476.418H877.583H878.583V475.418V451.847V450.847H877.583Z" fill="#4F29F3" fill-opacity="0.2" stroke="#4F29F3" stroke-width="2"/>
<path d="M680.476 474.422H679.476V475.422V497.994H646.812V476.422H663.141H664.141V475.422V452.845H680.476H681.476V451.845V429.273H714.139V450.845H697.804H696.804V451.845V474.422H680.476Z" fill="#4F29F3" fill-opacity="0.2" stroke="#4F29F3" stroke-width="2"/>
<path d="M506.476 450.848H461.259V429.271H528.585V498.002H507.476V451.848V450.848H506.476Z" fill="#4F29F3" fill-opacity="0.2" stroke="#4F29F3" stroke-width="2"/>
<path d="M586.094 450.944L586.093 450.944C580.483 451.656 575.972 456.251 575.254 461.941C574.196 470.298 581.108 477.398 589.365 476.309C594.974 475.572 599.468 470.954 600.151 465.257C601.162 456.942 594.308 449.91 586.094 450.944ZM587.702 498.001C569.127 498.001 554.039 482.636 554.039 463.635C554.039 444.634 569.127 429.27 587.702 429.27C606.272 429.27 621.365 444.635 621.365 463.635C621.365 482.636 606.277 498.001 587.702 498.001Z" fill="#4F29F3" fill-opacity="0.2" stroke="#4F29F3" stroke-width="2"/>
</g>
<g clip-path="url(#clip8_5445_3466)">
<path d="M532.645 103.222V170.505H465.319V103.222L498.268 136.839L498.982 137.568L499.697 136.839L532.645 103.222Z" fill="#4F29F3" fill-opacity="0.2" stroke="#4F29F3" stroke-width="2"/>
<path d="M836.412 169.056V101.773H903.738V169.056L870.789 135.439L870.075 134.71L869.361 135.439L836.412 169.056Z" fill="#4F29F3" fill-opacity="0.2" stroke="#4F29F3" stroke-width="2"/>
<path d="M974.401 123.354H929.178V101.777H996.504V170.509H929.178V148.926H974.401H975.401V147.926V124.354V123.354H974.401Z" fill="#4F29F3" fill-opacity="0.2" stroke="#4F29F3" stroke-width="2"/>
<path d="M777.301 146.933H776.301V147.933V170.504H743.638V148.933H759.966H760.966V147.933V125.356H777.301H778.301V124.356V101.784H810.964V123.356H794.63H793.63V124.356V146.933H777.301Z" fill="#4F29F3" fill-opacity="0.2" stroke="#4F29F3" stroke-width="2"/>
<path d="M603.309 123.354H558.092V101.777H625.418V170.509H604.309V124.354V123.354H603.309Z" fill="#4F29F3" fill-opacity="0.2" stroke="#4F29F3" stroke-width="2"/>
<path d="M682.923 123.448L682.922 123.448C677.312 124.16 672.801 128.755 672.083 134.445C671.025 142.802 677.937 149.901 686.194 148.813C691.803 148.076 696.297 143.458 696.98 137.761C697.991 129.446 691.137 122.414 682.923 123.448ZM684.531 170.505C665.956 170.505 650.868 155.14 650.868 136.139C650.868 117.138 665.956 101.773 684.531 101.773C703.101 101.773 718.194 117.138 718.194 136.139C718.194 155.14 703.106 170.505 684.531 170.505Z" fill="#4F29F3" fill-opacity="0.2" stroke="#4F29F3" stroke-width="2"/>
</g>
<g clip-path="url(#clip9_5445_3466)">
<path d="M530.862 322.774V390.056H463.536V322.774L496.485 356.391L497.199 357.119L497.913 356.391L530.862 322.774Z" fill="#4F29F3" fill-opacity="0.2" stroke="#4F29F3" stroke-width="2"/>
<path d="M834.626 388.608V321.325H901.952V388.608L869.003 354.991L868.289 354.262L867.575 354.991L834.626 388.608Z" fill="#4F29F3" fill-opacity="0.2" stroke="#4F29F3" stroke-width="2"/>
<path d="M972.626 342.9H927.403V321.323H994.73V390.055H927.403V368.472H972.626H973.626V367.472V343.9V342.9H972.626Z" fill="#4F29F3" fill-opacity="0.2" stroke="#4F29F3" stroke-width="2"/>
<path d="M775.522 366.483H774.522V367.483V390.054H741.859V368.483H758.188H759.188V367.483V344.905H775.522H776.522V343.905V321.334H809.186V342.905H792.851H791.851V343.905V366.483H775.522Z" fill="#4F29F3" fill-opacity="0.2" stroke="#4F29F3" stroke-width="2"/>
<path d="M601.529 342.899H556.312V321.322H623.638V390.054H602.529V343.899V342.899H601.529Z" fill="#4F29F3" fill-opacity="0.2" stroke="#4F29F3" stroke-width="2"/>
<path d="M681.141 342.999L681.14 343C675.53 343.712 671.019 348.307 670.301 353.996C669.243 362.353 676.154 369.453 684.412 368.365C690.021 367.628 694.515 363.01 695.198 357.313C696.208 348.998 689.355 341.966 681.141 342.999ZM682.749 390.056C664.174 390.056 649.086 374.692 649.086 355.691C649.086 336.69 664.174 321.325 682.749 321.325C701.319 321.325 716.412 336.69 716.412 355.691C716.412 374.692 701.324 390.056 682.749 390.056Z" fill="#4F29F3" fill-opacity="0.2" stroke="#4F29F3" stroke-width="2"/>
</g>
<g clip-path="url(#clip10_5445_3466)">
<path d="M1028.31 -6.55111V60.7313H960.981V-6.55111L993.93 27.0656L994.644 27.7943L995.359 27.0656L1028.31 -6.55111Z" fill="#4F29F3" fill-opacity="0.2" stroke="#4F29F3" stroke-width="2"/>
<path d="M1332.07 59.2824V-8H1399.4V59.2824L1366.45 25.6657L1365.73 24.937L1365.02 25.6657L1332.07 59.2824Z" fill="#4F29F3" fill-opacity="0.2" stroke="#4F29F3" stroke-width="2"/>
<path d="M1272.97 37.1564H1271.97V38.1564V60.7279H1239.3V39.1564H1255.63H1256.63V38.1564V15.5793H1272.97H1273.97V14.5793V-7.99219H1306.63V13.5793H1290.3H1289.3V14.5793V37.1564H1272.97Z" fill="#4F29F3" fill-opacity="0.2" stroke="#4F29F3" stroke-width="2"/>
<path d="M1098.97 13.5771H1053.76V-8H1121.08V60.7313H1099.97V14.5771V13.5771H1098.97Z" fill="#4F29F3" fill-opacity="0.2" stroke="#4F29F3" stroke-width="2"/>
<path d="M1178.58 13.6743L1178.58 13.6744C1172.97 14.3868 1168.46 18.9813 1167.74 24.6708C1166.69 33.0279 1173.6 40.1281 1181.86 39.0396C1187.46 38.3029 1191.96 33.6844 1192.64 27.9877C1193.65 19.6724 1186.8 12.6404 1178.58 13.6743ZM1180.19 60.7313C1161.62 60.7313 1146.53 45.3664 1146.53 26.3656C1146.53 7.36488 1161.62 -8 1180.19 -8C1198.76 -8 1213.86 7.36499 1213.86 26.3656C1213.86 45.3664 1198.77 60.7313 1180.19 60.7313Z" fill="#4F29F3" fill-opacity="0.2" stroke="#4F29F3" stroke-width="2"/>
</g>
<g clip-path="url(#clip11_5445_3466)">
<path d="M1028.31 213.006V280.288H960.982V213.006L993.931 246.622L994.645 247.351L995.36 246.622L1028.31 213.006Z" fill="#4F29F3" fill-opacity="0.2" stroke="#4F29F3" stroke-width="2"/>
<path d="M1332.07 278.839V211.557H1399.4V278.839L1366.45 245.222L1365.73 244.494L1365.02 245.222L1332.07 278.839Z" fill="#4F29F3" fill-opacity="0.2" stroke="#4F29F3" stroke-width="2"/>
<path d="M1272.96 256.712H1271.96V257.712V280.284H1239.3V258.712H1255.63H1256.63V257.712V235.135H1272.96H1273.96V234.135V211.563H1306.63V233.135H1290.29H1289.29V234.135V256.712H1272.96Z" fill="#4F29F3" fill-opacity="0.2" stroke="#4F29F3" stroke-width="2"/>
<path d="M1098.97 233.135H1053.75V211.558H1121.08V280.289H1099.97V234.135V233.135H1098.97Z" fill="#4F29F3" fill-opacity="0.2" stroke="#4F29F3" stroke-width="2"/>
<path d="M1178.58 233.231L1178.58 233.231C1172.97 233.943 1168.46 238.538 1167.74 244.227C1166.69 252.585 1173.6 259.685 1181.86 258.596C1187.46 257.86 1191.96 253.241 1192.64 247.544C1193.65 239.229 1186.8 232.197 1178.58 233.231ZM1180.19 280.288C1161.62 280.288 1146.53 264.923 1146.53 245.922C1146.53 226.922 1161.62 211.557 1180.19 211.557C1198.76 211.557 1213.86 226.922 1213.86 245.922C1213.86 264.923 1198.77 280.288 1180.19 280.288Z" fill="#4F29F3" fill-opacity="0.2" stroke="#4F29F3" stroke-width="2"/>
</g>
<g clip-path="url(#clip12_5445_3466)">
<path d="M1028.31 430.711V497.993H960.984V430.711L993.933 464.327L994.647 465.056L995.362 464.327L1028.31 430.711Z" fill="#4F29F3" fill-opacity="0.2" stroke="#4F29F3" stroke-width="2"/>
<path d="M1332.07 496.546V429.264H1399.4V496.546L1366.45 462.929L1365.74 462.201L1365.02 462.929L1332.07 496.546Z" fill="#4F29F3" fill-opacity="0.2" stroke="#4F29F3" stroke-width="2"/>
<path d="M1272.97 474.427H1271.97V475.427V497.998H1239.31V476.427H1255.63H1256.63V475.427V452.85H1272.97H1273.97V451.85V429.278H1306.63V450.85H1290.3H1289.3V451.85V474.427H1272.97Z" fill="#4F29F3" fill-opacity="0.2" stroke="#4F29F3" stroke-width="2"/>
<path d="M1098.97 450.84H1053.76V429.263H1121.08V497.994H1099.97V451.84V450.84H1098.97Z" fill="#4F29F3" fill-opacity="0.2" stroke="#4F29F3" stroke-width="2"/>
<path d="M1178.59 450.94L1178.58 450.94C1172.98 451.652 1168.46 456.247 1167.75 461.936C1166.69 470.294 1173.6 477.394 1181.86 476.305C1187.47 475.569 1191.96 470.95 1192.64 465.253C1193.65 456.938 1186.8 449.906 1178.59 450.94ZM1180.19 497.997C1161.62 497.997 1146.53 482.632 1146.53 463.631C1146.53 444.631 1161.62 429.266 1180.19 429.266C1198.76 429.266 1213.86 444.631 1213.86 463.631C1213.86 482.632 1198.77 497.997 1180.19 497.997Z" fill="#4F29F3" fill-opacity="0.2" stroke="#4F29F3" stroke-width="2"/>
</g>
<g clip-path="url(#clip13_5445_3466)">
<path d="M1125.13 103.22V170.503H1057.81V103.22L1090.76 136.837L1091.47 137.566L1092.18 136.837L1125.13 103.22Z" fill="#4F29F3" fill-opacity="0.2" stroke="#4F29F3" stroke-width="2"/>
<path d="M1369.79 146.93H1368.79V147.93V170.501H1336.12V148.93H1352.45H1353.45V147.93V125.353H1369.79H1370.79V124.353V101.781H1403.45V123.353H1387.12H1386.12V124.353V146.93H1369.79Z" fill="#4F29F3" fill-opacity="0.2" stroke="#4F29F3" stroke-width="2"/>
<path d="M1195.79 123.349H1150.58V101.771H1217.9V170.503H1196.79V124.349V123.349H1195.79Z" fill="#4F29F3" fill-opacity="0.2" stroke="#4F29F3" stroke-width="2"/>
<path d="M1275.41 123.446L1275.41 123.446C1269.8 124.158 1265.29 128.753 1264.57 134.442C1263.51 142.799 1270.42 149.9 1278.68 148.811C1284.29 148.074 1288.78 143.456 1289.46 137.759C1290.47 129.444 1283.62 122.412 1275.41 123.446ZM1277.02 170.503C1258.44 170.503 1243.35 155.138 1243.35 136.137C1243.35 117.136 1258.44 101.771 1277.02 101.771C1295.58 101.771 1310.68 117.136 1310.68 136.137C1310.68 155.138 1295.59 170.503 1277.02 170.503Z" fill="#4F29F3" fill-opacity="0.2" stroke="#4F29F3" stroke-width="2"/>
</g>
<g clip-path="url(#clip14_5445_3466)">
<path d="M1123.34 322.771V390.054H1056.02V322.771L1088.97 356.388L1089.68 357.117L1090.39 356.388L1123.34 322.771Z" fill="#4F29F3" fill-opacity="0.2" stroke="#4F29F3" stroke-width="2"/>
<path d="M1368 366.468H1367V367.468V390.039H1334.34V368.468H1350.67H1351.67V367.468V344.891H1368H1369V343.891V321.319H1401.66V342.891H1385.33H1384.33V343.891V366.468H1368Z" fill="#4F29F3" fill-opacity="0.2" stroke="#4F29F3" stroke-width="2"/>
<path d="M1194.01 342.894H1148.79V321.317H1216.12V390.049H1195.01V343.894V342.894H1194.01Z" fill="#4F29F3" fill-opacity="0.2" stroke="#4F29F3" stroke-width="2"/>
<path d="M1273.62 342.998L1273.62 342.998C1268.01 343.71 1263.5 348.305 1262.78 353.994C1261.72 362.351 1268.63 369.451 1276.89 368.363C1282.5 367.626 1286.99 363.008 1287.68 357.311C1288.69 348.996 1281.83 341.964 1273.62 342.998ZM1275.23 390.055C1256.65 390.055 1241.57 374.69 1241.57 355.689C1241.57 336.688 1256.65 321.323 1275.23 321.323C1293.8 321.323 1308.89 336.688 1308.89 355.689C1308.89 374.69 1293.8 390.055 1275.23 390.055Z" fill="#4F29F3" fill-opacity="0.2" stroke="#4F29F3" stroke-width="2"/>
</g>
</g>
<defs>
<clipPath id="clip0_5445_3466">
<rect width="533.192" height="70.7313" fill="white" transform="translate(-225 -9)"/>
</clipPath>
<clipPath id="clip1_5445_3466">
<rect width="533.192" height="70.7313" fill="white" transform="translate(-225 210.55)"/>
</clipPath>
<clipPath id="clip2_5445_3466">
<rect width="533.192" height="70.7313" fill="white" transform="translate(-225 428.269)"/>
</clipPath>
<clipPath id="clip3_5445_3466">
<rect width="533.192" height="70.7313" fill="white" transform="translate(-128.167 100.772)"/>
</clipPath>
<clipPath id="clip4_5445_3466">
<rect width="533.192" height="70.7313" fill="white" transform="translate(-129.955 320.324)"/>
</clipPath>
<clipPath id="clip5_5445_3466">
<rect width="533.192" height="70.7313" fill="white" transform="translate(367.487 -9)"/>
</clipPath>
<clipPath id="clip6_5445_3466">
<rect width="533.192" height="70.7313" fill="white" transform="translate(367.487 210.546)"/>
</clipPath>
<clipPath id="clip7_5445_3466">
<rect width="533.192" height="70.7313" fill="white" transform="translate(367.487 428.269)"/>
</clipPath>
<clipPath id="clip8_5445_3466">
<rect width="533.192" height="70.7313" fill="white" transform="translate(464.32 100.776)"/>
</clipPath>
<clipPath id="clip9_5445_3466">
<rect width="533.192" height="70.7313" fill="white" transform="translate(462.531 320.324)"/>
</clipPath>
<clipPath id="clip10_5445_3466">
<rect width="533.188" height="70.7313" fill="white" transform="translate(959.976 -9)"/>
</clipPath>
<clipPath id="clip11_5445_3466">
<rect width="533.188" height="70.7313" fill="white" transform="translate(959.976 210.546)"/>
</clipPath>
<clipPath id="clip12_5445_3466">
<rect width="533.188" height="70.7313" fill="white" transform="translate(959.976 428.269)"/>
</clipPath>
<clipPath id="clip13_5445_3466">
<rect width="533.188" height="70.7313" fill="white" transform="translate(1056.81 100.772)"/>
</clipPath>
<clipPath id="clip14_5445_3466">
<rect width="533.188" height="70.7313" fill="white" transform="translate(1055.02 320.324)"/>
</clipPath>
</defs>
</svg>
