<?xml version="1.0" encoding="UTF-8"?>
<svg id="Layer_5" data-name="Layer 5" xmlns="http://www.w3.org/2000/svg" viewBox="0 0 1080 1080">
  <defs>
    <style>
      .cls-1 {
        fill: #fff;
      }
    </style>
  </defs>
  <path class="cls-1" d="m92,434.12v47.06h-47.06v164.7h70.6v-47.06h47.06v-47.06h47.06v-117.64h-117.66Zm47.08,141.18h-23.54v-47.06h-23.54v94.12h-23.52v-117.66h70.6v70.6Zm23.52-47.06v-47.06h-47.06v-23.54h70.6v70.6h-23.54Z"/>
  <g>
    <path class="cls-1" d="m291.37,477.41h77.73v26.5h-48.09v22.84h48.09v26.5h-48.09v24.93h48.09v26.5h-77.73v-127.28Z"/>
    <path class="cls-1" d="m467.04,578.18v26.5h-80.2v-127.28h29.64v100.78h50.56Z"/>
    <path class="cls-1" d="m577.89,523.09c0,27.9-16.74,46.55-41.67,46.55h-21.79v35.04h-29.64v-127.28h51.43c24.93,0,41.67,18.31,41.67,45.68Zm-31.56.35c0-11.68-6.8-19.53-17.09-19.53h-14.82v39.23h14.82c10.29,0,17.09-7.85,17.09-19.7Z"/>
    <path class="cls-1" d="m700.25,604.68l-3.49-51.43-33.13,40.97h-1.74l-33.13-40.97-3.49,51.43h-29.64l6.97-129.37h1.74l58.41,73.58,58.41-73.58h1.75l6.97,129.37h-29.64Z"/>
    <path class="cls-1" d="m840.74,523.09c0,27.9-16.74,46.55-41.67,46.55h-21.8v35.04h-29.64v-127.28h51.43c24.93,0,41.67,18.31,41.67,45.68Zm-31.56.35c0-11.68-6.8-19.53-17.09-19.53h-14.82v39.23h14.82c10.29,0,17.09-7.85,17.09-19.7Z"/>
    <path class="cls-1" d="m840.74,598.44c0-3.66,2.8-6.46,6.67-6.46s6.67,2.8,6.67,6.46c0,3.45-2.8,6.24-6.67,6.24s-6.67-2.8-6.67-6.24Z"/>
    <path class="cls-1" d="m861.18,580.69c0-15.06,9.36-24.21,23.67-24.21,5.06,0,10.76,1.61,14.53,3.98l-3.77,6.99c-3.12-1.61-6.56-2.47-9.79-2.47-8.07,0-13.67,6.24-13.67,15.6s5.6,15.71,13.67,15.71c3.34,0,6.78-.64,9.79-2.26l3.77,6.78c-3.44,2.37-9.04,3.87-14.53,3.87-14.1,0-23.67-9.47-23.67-24Z"/>
    <path class="cls-1" d="m906.48,580.58c0-14.42,9.36-24.1,23.67-24.1s23.67,9.68,23.67,24.1-9.58,24.1-23.67,24.1-23.67-9.58-23.67-24.1Zm36.37,0c0-9.68-4.95-15.6-12.7-15.6s-12.7,5.92-12.7,15.6,5.06,15.71,12.7,15.71,12.7-5.92,12.7-15.71Z"/>
    <path class="cls-1" d="m1035.06,577.24v26.36h-11.08v-25.83c0-8.5-3.66-12.59-9.79-12.59-3.87,0-7.96,2.47-11.19,5.6l.11,1.29c.32,1.61.43,3.34.43,5.17v26.36h-11.08v-25.83c0-8.5-3.66-12.59-9.79-12.59-3.66,0-7.32,1.94-10.65,5.06v33.36h-11.08v-45.95h11.08v5.27c3.87-3.98,9.36-6.46,14.2-6.46,6.56,0,11.73,3.23,14.63,8.72,4.52-4.95,11.08-8.72,16.89-8.72,10.55,0,17.32,8.18,17.32,20.77Z"/>
  </g>
</svg>