<svg width="244" height="328" viewBox="0 0 244 328" fill="none" xmlns="http://www.w3.org/2000/svg">
<path d="M6.26367 126.528V89.6401H70.5277V259H29.2317V126.528H6.26367ZM162.859 150.888C172.448 150.888 181.032 152.976 188.611 157.152C196.189 161.328 202.144 167.437 206.475 175.48C210.805 183.523 212.971 192.957 212.971 203.784C212.971 215.075 210.341 225.051 205.083 233.712C199.979 242.373 192.864 249.101 183.739 253.896C174.768 258.536 164.637 260.856 153.347 260.856C141.437 260.856 130.92 258.381 121.795 253.432C112.669 248.483 105.555 241.677 100.451 233.016C95.3463 224.2 92.7943 214.147 92.7943 202.856C92.7943 194.349 94.2636 185.843 97.2023 177.336C100.141 168.675 104.936 159.549 111.587 149.96L151.259 91.2641H194.643L151.723 152.048C155.899 151.275 159.611 150.888 162.859 150.888ZM153.347 227.68C160.461 227.68 166.029 225.592 170.051 221.416C174.227 217.085 176.315 211.285 176.315 204.016C176.315 196.901 174.227 191.256 170.051 187.08C166.029 182.749 160.461 180.584 153.347 180.584C146.232 180.584 140.509 182.749 136.179 187.08C132.003 191.256 129.915 196.901 129.915 204.016C129.915 211.285 132.003 217.085 136.179 221.416C140.509 225.592 146.232 227.68 153.347 227.68Z" fill="#292C32"/>
<mask id="mask0_60_255" style="mask-type:luminance" maskUnits="userSpaceOnUse" x="1" y="84" width="217" height="182">
<path d="M218 84H1V266H218V84Z" fill="white"/>
<path d="M6.26367 126.528V89.6401H70.5277V259H29.2317V126.528H6.26367ZM162.859 150.888C172.448 150.888 181.032 152.976 188.611 157.152C196.189 161.328 202.144 167.437 206.475 175.48C210.805 183.523 212.971 192.957 212.971 203.784C212.971 215.075 210.341 225.051 205.083 233.712C199.979 242.373 192.864 249.101 183.739 253.896C174.768 258.536 164.637 260.856 153.347 260.856C141.437 260.856 130.92 258.381 121.795 253.432C112.669 248.483 105.555 241.677 100.451 233.016C95.3463 224.2 92.7943 214.147 92.7943 202.856C92.7943 194.349 94.2636 185.843 97.2023 177.336C100.141 168.675 104.936 159.549 111.587 149.96L151.259 91.2641H194.643L151.723 152.048C155.899 151.275 159.611 150.888 162.859 150.888ZM153.347 227.68C160.461 227.68 166.029 225.592 170.051 221.416C174.227 217.085 176.315 211.285 176.315 204.016C176.315 196.901 174.227 191.256 170.051 187.08C166.029 182.749 160.461 180.584 153.347 180.584C146.232 180.584 140.509 182.749 136.179 187.08C132.003 191.256 129.915 196.901 129.915 204.016C129.915 211.285 132.003 217.085 136.179 221.416C140.509 225.592 146.232 227.68 153.347 227.68Z" fill="black"/>
</mask>
<g mask="url(#mask0_60_255)">
<path d="M6.26367 126.528H1.26367V131.528H6.26367V126.528ZM6.26367 89.6401V84.6401H1.26367V89.6401H6.26367ZM70.5277 89.6401H75.5277V84.6401H70.5277V89.6401ZM70.5277 259V264H75.5277V259H70.5277ZM29.2317 259H24.2317V264H29.2317V259ZM29.2317 126.528H34.2317V121.528H29.2317V126.528ZM11.2637 126.528V89.6401H1.26367V126.528H11.2637ZM6.26367 94.6401H70.5277V84.6401H6.26367V94.6401ZM65.5277 89.6401V259H75.5277V89.6401H65.5277ZM70.5277 254H29.2317V264H70.5277V254ZM34.2317 259V126.528H24.2317V259H34.2317ZM29.2317 121.528H6.26367V131.528H29.2317V121.528ZM205.083 233.712L200.809 231.117L200.792 231.145L200.775 231.174L205.083 233.712ZM183.739 253.896L186.036 258.337L186.05 258.33L186.064 258.322L183.739 253.896ZM100.451 233.016L96.1231 235.521L96.1328 235.538L96.1426 235.554L100.451 233.016ZM97.2023 177.336L101.929 178.969L101.933 178.956L101.937 178.942L97.2023 177.336ZM111.587 149.96L115.695 152.809L115.712 152.785L115.729 152.76L111.587 149.96ZM151.259 91.2641V86.2641H148.603L147.116 88.4642L151.259 91.2641ZM194.643 91.2641L198.727 94.1481L204.294 86.2641H194.643V91.2641ZM151.723 152.048L147.638 149.164L140.55 159.202L152.633 156.964L151.723 152.048ZM170.051 221.416L166.451 217.945L166.449 217.948L170.051 221.416ZM170.051 187.08L166.387 190.482L166.45 190.55L166.515 190.616L170.051 187.08ZM136.179 221.416L132.579 224.887L132.642 224.952L132.708 225.015L136.179 221.416ZM162.859 155.888C171.697 155.888 179.436 157.805 186.198 161.531L191.024 152.773C182.628 148.147 173.199 145.888 162.859 145.888V155.888ZM186.198 161.531C192.886 165.217 198.171 170.605 202.072 177.85L210.877 173.109C206.117 164.269 199.493 157.439 191.024 152.773L186.198 161.531ZM202.072 177.85C205.944 185.041 207.971 193.632 207.971 203.784H217.971C217.971 192.283 215.667 182.005 210.877 173.109L202.072 177.85ZM207.971 203.784C207.971 214.267 205.54 223.325 200.809 231.117L209.357 236.307C215.143 226.776 217.971 215.882 217.971 203.784H207.971ZM200.775 231.174C196.156 239.012 189.737 245.096 181.413 249.47L186.064 258.322C195.991 253.106 203.802 245.734 209.39 236.25L200.775 231.174ZM181.441 249.455C173.261 253.686 163.933 255.856 153.347 255.856V265.856C165.341 265.856 176.275 263.386 186.036 258.337L181.441 249.455ZM153.347 255.856C142.146 255.856 132.47 253.534 124.178 249.037L119.411 257.827C129.369 263.229 140.728 265.856 153.347 265.856V255.856ZM124.178 249.037C115.824 244.505 109.386 238.33 104.758 230.478L96.1426 235.554C101.723 245.024 109.515 252.46 119.411 257.827L124.178 249.037ZM104.778 230.511C100.161 222.536 97.7943 213.365 97.7943 202.856H87.7943C87.7943 214.929 90.5319 225.864 96.1231 235.521L104.778 230.511ZM97.7943 202.856C97.7943 194.937 99.1604 186.981 101.929 178.969L92.4763 175.703C89.3668 184.705 87.7943 193.762 87.7943 202.856H97.7943ZM101.937 178.942C104.692 170.825 109.241 162.116 115.695 152.809L107.478 147.111C100.631 156.983 95.5905 166.525 92.4674 175.73L101.937 178.942ZM115.729 152.76L155.401 94.064L147.116 88.4642L107.444 147.16L115.729 152.76ZM151.259 96.2641H194.643V86.2641H151.259V96.2641ZM190.558 88.3801L147.638 149.164L155.807 154.932L198.727 94.1481L190.558 88.3801ZM152.633 156.964C156.595 156.231 159.992 155.888 162.859 155.888V145.888C159.229 145.888 155.202 146.319 150.812 147.132L152.633 156.964ZM153.347 232.68C161.49 232.68 168.482 230.254 173.652 224.884L166.449 217.948C163.577 220.93 159.432 222.68 153.347 222.68V232.68ZM173.65 224.887C178.905 219.436 181.315 212.294 181.315 204.016H171.315C171.315 210.277 169.548 214.734 166.451 217.945L173.65 224.887ZM181.315 204.016C181.315 195.865 178.887 188.845 173.586 183.544L166.515 190.616C169.566 193.667 171.315 197.937 171.315 204.016H181.315ZM173.715 183.678C168.557 178.123 161.545 175.584 153.347 175.584V185.584C159.378 185.584 163.502 187.375 166.387 190.482L173.715 183.678ZM153.347 175.584C145.138 175.584 138.063 178.124 132.643 183.544L139.714 190.616C142.955 187.375 147.326 185.584 153.347 185.584V175.584ZM132.643 183.544C127.342 188.845 124.915 195.865 124.915 204.016H134.915C134.915 197.937 136.663 193.667 139.714 190.616L132.643 183.544ZM124.915 204.016C124.915 212.294 127.324 219.436 132.579 224.887L139.778 217.945C136.681 214.734 134.915 210.277 134.915 204.016H124.915ZM132.708 225.015C138.138 230.251 145.19 232.68 153.347 232.68V222.68C147.274 222.68 142.881 220.933 139.649 217.817L132.708 225.015Z" fill="#4F29F3"/>
</g>
<path d="M214.68 115.6C214.68 113.787 215.227 112.347 216.32 111.28C217.413 110.187 218.813 109.64 220.52 109.64C222.227 109.64 223.627 110.187 224.72 111.28C225.813 112.347 226.36 113.787 226.36 115.6C226.36 117.44 225.813 118.907 224.72 120C223.627 121.067 222.227 121.6 220.52 121.6C218.813 121.6 217.413 121.067 216.32 120C215.227 118.907 214.68 117.44 214.68 115.6ZM238.04 110.08L221.84 138H218.24L234.44 110.08H238.04ZM220.52 111.88C219.613 111.88 218.893 112.2 218.36 112.84C217.853 113.453 217.6 114.373 217.6 115.6C217.6 116.827 217.853 117.76 218.36 118.4C218.893 119.04 219.613 119.36 220.52 119.36C221.427 119.36 222.147 119.04 222.68 118.4C223.213 117.733 223.48 116.8 223.48 115.6C223.48 114.373 223.213 113.453 222.68 112.84C222.147 112.2 221.427 111.88 220.52 111.88ZM230 132.48C230 130.64 230.547 129.187 231.64 128.12C232.733 127.027 234.133 126.48 235.84 126.48C237.547 126.48 238.933 127.027 240 128.12C241.093 129.187 241.64 130.64 241.64 132.48C241.64 134.293 241.093 135.747 240 136.84C238.933 137.933 237.547 138.48 235.84 138.48C234.133 138.48 232.733 137.947 231.64 136.88C230.547 135.787 230 134.32 230 132.48ZM235.8 128.76C234.893 128.76 234.173 129.08 233.64 129.72C233.107 130.333 232.84 131.253 232.84 132.48C232.84 133.68 233.107 134.6 233.64 135.24C234.173 135.853 234.893 136.16 235.8 136.16C236.707 136.16 237.427 135.853 237.96 135.24C238.493 134.6 238.76 133.68 238.76 132.48C238.76 131.253 238.493 130.333 237.96 129.72C237.427 129.08 236.707 128.76 235.8 128.76Z" fill="white"/>
<path d="M85.0202 309.12C84.5562 308.144 83.8842 307.392 83.0042 306.864C82.1242 306.32 81.1002 306.048 79.9322 306.048C78.7642 306.048 77.7082 306.32 76.7642 306.864C75.8362 307.392 75.1002 308.16 74.5562 309.168C74.0282 310.16 73.7642 311.312 73.7642 312.624C73.7642 313.936 74.0282 315.088 74.5562 316.08C75.1002 317.072 75.8362 317.84 76.7642 318.384C77.7082 318.912 78.7642 319.176 79.9322 319.176C81.5642 319.176 82.9082 318.688 83.9642 317.712C85.0202 316.736 85.6362 315.416 85.8122 313.752H79.1402V311.976H88.1402V313.656C88.0122 315.032 87.5802 316.296 86.8442 317.448C86.1082 318.584 85.1402 319.488 83.9402 320.16C82.7402 320.816 81.4042 321.144 79.9322 321.144C78.3802 321.144 76.9642 320.784 75.6842 320.064C74.4042 319.328 73.3882 318.312 72.6362 317.016C71.9002 315.72 71.5322 314.256 71.5322 312.624C71.5322 310.992 71.9002 309.528 72.6362 308.232C73.3882 306.92 74.4042 305.904 75.6842 305.184C76.9642 304.448 78.3802 304.08 79.9322 304.08C81.7082 304.08 83.2762 304.52 84.6362 305.4C86.0122 306.28 87.0122 307.52 87.6362 309.12H85.0202ZM92.8519 303.24V321H90.6679V303.24H92.8519ZM101.95 321.216C100.718 321.216 99.5981 320.936 98.5901 320.376C97.5981 319.816 96.8141 319.024 96.2381 318C95.6781 316.96 95.3981 315.76 95.3981 314.4C95.3981 313.056 95.6861 311.872 96.2621 310.848C96.8541 309.808 97.6541 309.016 98.6621 308.472C99.6701 307.912 100.798 307.632 102.046 307.632C103.294 307.632 104.422 307.912 105.43 308.472C106.438 309.016 107.23 309.8 107.806 310.824C108.398 311.848 108.694 313.04 108.694 314.4C108.694 315.76 108.39 316.96 107.782 318C107.19 319.024 106.382 319.816 105.358 320.376C104.334 320.936 103.198 321.216 101.95 321.216ZM101.95 319.296C102.734 319.296 103.47 319.112 104.158 318.744C104.846 318.376 105.398 317.824 105.814 317.088C106.246 316.352 106.462 315.456 106.462 314.4C106.462 313.344 106.254 312.448 105.838 311.712C105.422 310.976 104.878 310.432 104.206 310.08C103.534 309.712 102.806 309.528 102.022 309.528C101.222 309.528 100.486 309.712 99.8141 310.08C99.1581 310.432 98.6301 310.976 98.2301 311.712C97.8301 312.448 97.6301 313.344 97.6301 314.4C97.6301 315.472 97.8221 316.376 98.2061 317.112C98.6061 317.848 99.1341 318.4 99.7901 318.768C100.446 319.12 101.166 319.296 101.95 319.296ZM113.389 310.296C113.837 309.512 114.493 308.872 115.357 308.376C116.221 307.88 117.205 307.632 118.309 307.632C119.493 307.632 120.557 307.912 121.501 308.472C122.445 309.032 123.189 309.824 123.733 310.848C124.277 311.856 124.549 313.032 124.549 314.376C124.549 315.704 124.277 316.888 123.733 317.928C123.189 318.968 122.437 319.776 121.477 320.352C120.533 320.928 119.477 321.216 118.309 321.216C117.173 321.216 116.173 320.968 115.309 320.472C114.461 319.976 113.821 319.344 113.389 318.576V321H111.205V303.24H113.389V310.296ZM122.317 314.376C122.317 313.384 122.117 312.52 121.717 311.784C121.317 311.048 120.773 310.488 120.085 310.104C119.413 309.72 118.669 309.528 117.853 309.528C117.053 309.528 116.309 309.728 115.621 310.128C114.949 310.512 114.405 311.08 113.989 311.832C113.589 312.568 113.389 313.424 113.389 314.4C113.389 315.392 113.589 316.264 113.989 317.016C114.405 317.752 114.949 318.32 115.621 318.72C116.309 319.104 117.053 319.296 117.853 319.296C118.669 319.296 119.413 319.104 120.085 318.72C120.773 318.32 121.317 317.752 121.717 317.016C122.117 316.264 122.317 315.384 122.317 314.376ZM126.248 314.376C126.248 313.032 126.52 311.856 127.064 310.848C127.608 309.824 128.352 309.032 129.296 308.472C130.256 307.912 131.32 307.632 132.488 307.632C133.64 307.632 134.64 307.88 135.488 308.376C136.336 308.872 136.968 309.496 137.384 310.248V307.848H139.592V321H137.384V318.552C136.952 319.32 136.304 319.96 135.44 320.472C134.592 320.968 133.6 321.216 132.464 321.216C131.296 321.216 130.24 320.928 129.296 320.352C128.352 319.776 127.608 318.968 127.064 317.928C126.52 316.888 126.248 315.704 126.248 314.376ZM137.384 314.4C137.384 313.408 137.184 312.544 136.784 311.808C136.384 311.072 135.84 310.512 135.152 310.128C134.48 309.728 133.736 309.528 132.92 309.528C132.104 309.528 131.36 309.72 130.688 310.104C130.016 310.488 129.48 311.048 129.08 311.784C128.68 312.52 128.48 313.384 128.48 314.376C128.48 315.384 128.68 316.264 129.08 317.016C129.48 317.752 130.016 318.32 130.688 318.72C131.36 319.104 132.104 319.296 132.92 319.296C133.736 319.296 134.48 319.104 135.152 318.72C135.84 318.32 136.384 317.752 136.784 317.016C137.184 316.264 137.384 315.392 137.384 314.4ZM145.107 303.24V321H142.923V303.24H145.107ZM150.653 303.24V321H148.469V303.24H150.653ZM165.344 307.848L157.424 327.192H155.168L157.76 320.856L152.456 307.848H154.88L159.008 318.504L163.088 307.848H165.344Z" fill="white"/>
<path d="M121.167 18.6665H142.5M142.5 18.6665V39.9998M142.5 18.6665L121.167 39.9998L110.5 29.3332L94.5 45.3332" stroke="white" stroke-width="4" stroke-linecap="round" stroke-linejoin="round"/>
</svg>
