<svg width="687" height="442" viewBox="0 0 687 442" fill="none" xmlns="http://www.w3.org/2000/svg">
<g clip-path="url(#clip0_13_171)">
<rect width="687" height="442" rx="24" fill="url(#paint0_linear_13_171)"/>
<g style="mix-blend-mode:soft-light">
<path d="M492.515 107.8C504.607 97.495 522.393 97.495 534.485 107.8C539.667 112.216 546.11 114.885 552.897 115.426C568.734 116.69 581.31 129.266 582.574 145.104C583.115 151.89 585.784 158.333 590.2 163.515C600.505 175.607 600.505 193.393 590.2 205.485C585.784 210.667 583.115 217.11 582.574 223.897C581.31 239.734 568.734 252.31 552.897 253.574C546.11 254.115 539.667 256.784 534.485 261.2C522.393 271.505 504.607 271.505 492.515 261.2C487.333 256.784 480.89 254.115 474.104 253.574C458.266 252.31 445.69 239.734 444.426 223.897C443.885 217.11 441.216 210.667 436.8 205.485C426.495 193.393 426.495 175.607 436.8 163.515C441.216 158.333 443.885 151.89 444.426 145.104C445.69 129.266 458.266 116.69 474.104 115.426C480.89 114.885 487.333 112.216 492.515 107.8Z" fill="#C7BBFB"/>
<path d="M485.125 184.5L504.042 203.417L541.875 165.583M474.104 115.426C480.89 114.885 487.333 112.216 492.515 107.8C504.607 97.495 522.393 97.495 534.485 107.8C539.667 112.216 546.11 114.885 552.897 115.426C568.734 116.69 581.31 129.266 582.574 145.104C583.115 151.89 585.784 158.333 590.2 163.515C600.505 175.607 600.505 193.393 590.2 205.485C585.784 210.667 583.115 217.11 582.574 223.897C581.31 239.734 568.734 252.31 552.897 253.574C546.11 254.115 539.667 256.784 534.485 261.2C522.393 271.505 504.607 271.505 492.515 261.2C487.333 256.784 480.89 254.115 474.104 253.574C458.266 252.31 445.69 239.734 444.426 223.897C443.885 217.11 441.216 210.667 436.8 205.485C426.495 193.393 426.495 175.607 436.8 163.515C441.216 158.333 443.885 151.89 444.426 145.104C445.69 129.266 458.266 116.69 474.104 115.426Z" stroke="#886EF7" stroke-width="18" stroke-linecap="round" stroke-linejoin="round"/>
</g>
<g style="mix-blend-mode:soft-light">
<path d="M384.515 288.8C396.607 278.495 414.393 278.495 426.485 288.8C431.667 293.216 438.11 295.885 444.897 296.426C460.734 297.69 473.31 310.266 474.574 326.104C475.115 332.89 477.784 339.333 482.2 344.515C492.505 356.607 492.505 374.393 482.2 386.485C477.784 391.667 475.115 398.11 474.574 404.897C473.31 420.734 460.734 433.31 444.897 434.574C438.11 435.115 431.667 437.784 426.485 442.2C414.393 452.505 396.607 452.505 384.515 442.2C379.333 437.784 372.89 435.115 366.104 434.574C350.266 433.31 337.69 420.734 336.426 404.897C335.885 398.11 333.216 391.667 328.8 386.485C318.495 374.393 318.495 356.607 328.8 344.515C333.216 339.333 335.885 332.89 336.426 326.104C337.69 310.266 350.266 297.69 366.104 296.426C372.89 295.885 379.333 293.216 384.515 288.8Z" fill="#C7BBFB"/>
<path d="M377.125 365.5L396.042 384.417L433.875 346.583M366.104 296.426C372.89 295.885 379.333 293.216 384.515 288.8C396.607 278.495 414.393 278.495 426.485 288.8C431.667 293.216 438.11 295.885 444.897 296.426C460.734 297.69 473.31 310.266 474.574 326.104C475.115 332.89 477.784 339.333 482.2 344.515C492.505 356.607 492.505 374.393 482.2 386.485C477.784 391.667 475.115 398.11 474.574 404.897C473.31 420.734 460.734 433.31 444.897 434.574C438.11 435.115 431.667 437.784 426.485 442.2C414.393 452.505 396.607 452.505 384.515 442.2C379.333 437.784 372.89 435.115 366.104 434.574C350.266 433.31 337.69 420.734 336.426 404.897C335.885 398.11 333.216 391.667 328.8 386.485C318.495 374.393 318.495 356.607 328.8 344.515C333.216 339.333 335.885 332.89 336.426 326.104C337.69 310.266 350.266 297.69 366.104 296.426Z" stroke="#886EF7" stroke-width="18" stroke-linecap="round" stroke-linejoin="round"/>
</g>
<g style="mix-blend-mode:soft-light">
<path d="M645.515 258.8C657.607 248.495 675.393 248.495 687.485 258.8C692.667 263.216 699.11 265.885 705.897 266.426C721.734 267.69 734.31 280.266 735.574 296.104C736.115 302.89 738.784 309.333 743.2 314.515C753.505 326.607 753.505 344.393 743.2 356.485C738.784 361.667 736.115 368.11 735.574 374.897C734.31 390.734 721.734 403.31 705.897 404.574C699.11 405.115 692.667 407.784 687.485 412.2C675.393 422.505 657.607 422.505 645.515 412.2C640.333 407.784 633.89 405.115 627.104 404.574C611.266 403.31 598.69 390.734 597.426 374.897C596.885 368.11 594.216 361.667 589.8 356.485C579.495 344.393 579.495 326.607 589.8 314.515C594.216 309.333 596.885 302.89 597.426 296.104C598.69 280.266 611.266 267.69 627.104 266.426C633.89 265.885 640.333 263.216 645.515 258.8Z" fill="#C7BBFB"/>
<path d="M638.125 335.5L657.042 354.417L694.875 316.583M627.104 266.426C633.89 265.885 640.333 263.216 645.515 258.8C657.607 248.495 675.393 248.495 687.485 258.8C692.667 263.216 699.11 265.885 705.897 266.426C721.734 267.69 734.31 280.266 735.574 296.104C736.115 302.89 738.784 309.333 743.2 314.515C753.505 326.607 753.505 344.393 743.2 356.485C738.784 361.667 736.115 368.11 735.574 374.897C734.31 390.734 721.734 403.31 705.897 404.574C699.11 405.115 692.667 407.784 687.485 412.2C675.393 422.505 657.607 422.505 645.515 412.2C640.333 407.784 633.89 405.115 627.104 404.574C611.266 403.31 598.69 390.734 597.426 374.897C596.885 368.11 594.216 361.667 589.8 356.485C579.495 344.393 579.495 326.607 589.8 314.515C594.216 309.333 596.885 302.89 597.426 296.104C598.69 280.266 611.266 267.69 627.104 266.426Z" stroke="#886EF7" stroke-width="18" stroke-linecap="round" stroke-linejoin="round"/>
</g>
<g style="mix-blend-mode:soft-light">
<path d="M692.515 47.8001C704.607 37.495 722.393 37.495 734.485 47.8001C739.667 52.216 746.11 54.8847 752.897 55.4263C768.734 56.6901 781.31 69.2663 782.574 85.1036C783.115 91.8903 785.784 98.3332 790.2 103.515C800.505 115.607 800.505 133.393 790.2 145.485C785.784 150.667 783.115 157.11 782.574 163.897C781.31 179.734 768.734 192.31 752.897 193.574C746.11 194.115 739.667 196.784 734.485 201.2C722.393 211.505 704.607 211.505 692.515 201.2C687.333 196.784 680.89 194.115 674.104 193.574C658.266 192.31 645.69 179.734 644.426 163.897C643.885 157.11 641.216 150.667 636.8 145.485C626.495 133.393 626.495 115.607 636.8 103.515C641.216 98.3332 643.885 91.8903 644.426 85.1036C645.69 69.2663 658.266 56.6901 674.104 55.4263C680.89 54.8847 687.333 52.216 692.515 47.8001Z" fill="#C7BBFB"/>
<path d="M685.125 124.5L704.042 143.417L741.875 105.583M674.104 55.4263C680.89 54.8847 687.333 52.216 692.515 47.8001C704.607 37.495 722.393 37.495 734.485 47.8001C739.667 52.216 746.11 54.8847 752.897 55.4263C768.734 56.6901 781.31 69.2663 782.574 85.1036C783.115 91.8903 785.784 98.3332 790.2 103.515C800.505 115.607 800.505 133.393 790.2 145.485C785.784 150.667 783.115 157.11 782.574 163.897C781.31 179.734 768.734 192.31 752.897 193.574C746.11 194.115 739.667 196.784 734.485 201.2C722.393 211.505 704.607 211.505 692.515 201.2C687.333 196.784 680.89 194.115 674.104 193.574C658.266 192.31 645.69 179.734 644.426 163.897C643.885 157.11 641.216 150.667 636.8 145.485C626.495 133.393 626.495 115.607 636.8 103.515C641.216 98.3332 643.885 91.8903 644.426 85.1036C645.69 69.2663 658.266 56.6901 674.104 55.4263Z" stroke="#886EF7" stroke-width="18" stroke-linecap="round" stroke-linejoin="round"/>
</g>
<g style="mix-blend-mode:soft-light">
<path d="M321.515 -14.1999C333.607 -24.505 351.393 -24.505 363.485 -14.1999C368.667 -9.78399 375.11 -7.11527 381.897 -6.57369C397.734 -5.30986 410.31 7.2663 411.574 23.1036C412.115 29.8903 414.784 36.3332 419.2 41.515C429.505 53.6074 429.505 71.3928 419.2 83.4851C414.784 88.667 412.115 95.1098 411.574 101.897C410.31 117.734 397.734 130.31 381.897 131.574C375.11 132.115 368.667 134.784 363.485 139.2C351.393 149.505 333.607 149.505 321.515 139.2C316.333 134.784 309.89 132.115 303.104 131.574C287.266 130.31 274.69 117.734 273.426 101.897C272.885 95.1098 270.216 88.667 265.8 83.4851C255.495 71.3928 255.495 53.6074 265.8 41.515C270.216 36.3332 272.885 29.8903 273.426 23.1036C274.69 7.2663 287.266 -5.30986 303.104 -6.57369C309.89 -7.11527 316.333 -9.78399 321.515 -14.1999Z" fill="#C7BBFB"/>
<path d="M314.125 62.5001L333.042 81.4167L370.875 43.5834M303.104 -6.57369C309.89 -7.11527 316.333 -9.78399 321.515 -14.1999C333.607 -24.505 351.393 -24.505 363.485 -14.1999C368.667 -9.78399 375.11 -7.11527 381.897 -6.57369C397.734 -5.30986 410.31 7.2663 411.574 23.1036C412.115 29.8903 414.784 36.3332 419.2 41.515C429.505 53.6074 429.505 71.3928 419.2 83.4851C414.784 88.667 412.115 95.1098 411.574 101.897C410.31 117.734 397.734 130.31 381.897 131.574C375.11 132.115 368.667 134.784 363.485 139.2C351.393 149.505 333.607 149.505 321.515 139.2C316.333 134.784 309.89 132.115 303.104 131.574C287.266 130.31 274.69 117.734 273.426 101.897C272.885 95.1098 270.216 88.667 265.8 83.4851C255.495 71.3928 255.495 53.6074 265.8 41.515C270.216 36.3332 272.885 29.8903 273.426 23.1036C274.69 7.2663 287.266 -5.30986 303.104 -6.57369Z" stroke="#886EF7" stroke-width="18" stroke-linecap="round" stroke-linejoin="round"/>
</g>
<g style="mix-blend-mode:soft-light">
<path d="M531.515 -106.2C543.607 -116.505 561.393 -116.505 573.485 -106.2C578.667 -101.784 585.11 -99.1153 591.897 -98.5737C607.734 -97.3099 620.31 -84.7337 621.574 -68.8964C622.115 -62.1097 624.784 -55.6668 629.2 -50.485C639.505 -38.3926 639.505 -20.6072 629.2 -8.51489C624.784 -3.33304 622.115 3.10983 621.574 9.8965C620.31 25.7339 607.734 38.31 591.897 39.5738C585.11 40.1154 578.667 42.7841 573.485 47.2001C561.393 57.5051 543.607 57.5051 531.515 47.2001C526.333 42.7841 519.89 40.1154 513.104 39.5738C497.266 38.31 484.69 25.7338 483.426 9.8965C482.885 3.10983 480.216 -3.33303 475.8 -8.51489C465.495 -20.6072 465.495 -38.3926 475.8 -50.485C480.216 -55.6668 482.885 -62.1097 483.426 -68.8964C484.69 -84.7337 497.266 -97.3099 513.104 -98.5737C519.89 -99.1153 526.333 -101.784 531.515 -106.2Z" fill="#C7BBFB"/>
<path d="M524.125 -29.4999L543.042 -10.5833L580.875 -48.4166M513.104 -98.5737C519.89 -99.1153 526.333 -101.784 531.515 -106.2C543.607 -116.505 561.393 -116.505 573.485 -106.2C578.667 -101.784 585.11 -99.1153 591.897 -98.5737C607.734 -97.3099 620.31 -84.7337 621.574 -68.8964C622.115 -62.1097 624.784 -55.6668 629.2 -50.485C639.505 -38.3926 639.505 -20.6072 629.2 -8.51489C624.784 -3.33304 622.115 3.10983 621.574 9.8965C620.31 25.7339 607.734 38.31 591.897 39.5738C585.11 40.1154 578.667 42.7841 573.485 47.2001C561.393 57.5051 543.607 57.5051 531.515 47.2001C526.333 42.7841 519.89 40.1154 513.104 39.5738C497.266 38.31 484.69 25.7338 483.426 9.8965C482.885 3.10983 480.216 -3.33303 475.8 -8.51489C465.495 -20.6072 465.495 -38.3926 475.8 -50.485C480.216 -55.6668 482.885 -62.1097 483.426 -68.8964C484.69 -84.7337 497.266 -97.3099 513.104 -98.5737Z" stroke="#886EF7" stroke-width="18" stroke-linecap="round" stroke-linejoin="round"/>
</g>
</g>
<defs>
<linearGradient id="paint0_linear_13_171" x1="86.5" y1="30.5" x2="660.5" y2="426.5" gradientUnits="userSpaceOnUse">
<stop stop-color="#4625D9"/>
<stop offset="1" stop-color="#3C12F2"/>
</linearGradient>
<clipPath id="clip0_13_171">
<rect width="687" height="442" rx="24" fill="white"/>
</clipPath>
</defs>
</svg>
