<svg width="449" height="655" viewBox="0 0 449 655" fill="none" xmlns="http://www.w3.org/2000/svg">
<rect width="449" height="655" rx="24" fill="url(#paint0_linear_13_208)"/>
<g style="mix-blend-mode:color-burn" opacity="0.6">
<path d="M410.784 81.9744L410.784 36.7195M410.784 36.7195L365.529 36.7195M410.784 36.7195L352.599 94.9043" stroke="#4F29F3" stroke-width="14" stroke-linecap="round" stroke-linejoin="round"/>
</g>
<g style="mix-blend-mode:color-burn" opacity="0.6">
<path d="M410.784 177.414L410.784 132.159M410.784 132.159L365.529 132.159M410.784 132.159L352.599 190.344" stroke="#4F29F3" stroke-width="14" stroke-linecap="round" stroke-linejoin="round"/>
</g>
<g style="mix-blend-mode:color-burn" opacity="0.6">
<path d="M410.784 272.854L410.784 227.599M410.784 227.599L365.529 227.599M410.784 227.599L352.599 285.784" stroke="#4F29F3" stroke-width="14" stroke-linecap="round" stroke-linejoin="round"/>
</g>
<g style="mix-blend-mode:color-burn" opacity="0.5">
<path d="M299.344 81.9744L299.344 36.7195M299.344 36.7195L254.089 36.7195M299.344 36.7195L241.159 94.9043" stroke="#4F29F3" stroke-width="14" stroke-linecap="round" stroke-linejoin="round"/>
</g>
<path opacity="0.8" d="M299.344 177.414L299.344 132.159M299.344 132.159L254.089 132.159M299.344 132.159L241.159 190.344" stroke="#4F29F3" stroke-width="14" stroke-linecap="round" stroke-linejoin="round"/>
<g style="mix-blend-mode:color-burn" opacity="0.5">
<path d="M299.344 272.854L299.344 227.599M299.344 227.599L254.089 227.599M299.344 227.599L241.159 285.784" stroke="#4F29F3" stroke-width="14" stroke-linecap="round" stroke-linejoin="round"/>
</g>
<g style="mix-blend-mode:color-burn" opacity="0.4">
<path d="M187.905 81.9744L187.905 36.7195M187.905 36.7195L142.65 36.7195M187.905 36.7195L129.72 94.9043" stroke="#4F29F3" stroke-width="14" stroke-linecap="round" stroke-linejoin="round"/>
</g>
<g style="mix-blend-mode:color-burn" opacity="0.4">
<path d="M187.905 177.414L187.905 132.159M187.905 132.159L142.65 132.159M187.905 132.159L129.72 190.344" stroke="#4F29F3" stroke-width="14" stroke-linecap="round" stroke-linejoin="round"/>
</g>
<g style="mix-blend-mode:color-burn" opacity="0.4">
<path d="M187.905 272.854L187.905 227.599M187.905 227.599L142.65 227.599M187.905 227.599L129.72 285.784" stroke="#4F29F3" stroke-width="14" stroke-linecap="round" stroke-linejoin="round"/>
</g>
<defs>
<linearGradient id="paint0_linear_13_208" x1="224.5" y1="0" x2="224.5" y2="655" gradientUnits="userSpaceOnUse">
<stop stop-color="#F3F1FE"/>
<stop offset="1" stop-color="#D6CFFC"/>
</linearGradient>
</defs>
</svg>
