<svg width="1156" height="471" viewBox="0 0 1156 471" fill="none" xmlns="http://www.w3.org/2000/svg">
<g opacity="0.06">
<g clip-path="url(#clip0_37_190)">
<path d="M339.151 0.300781V70.2968H269.155V0.300781L304.153 35.2988L339.151 0.300781Z" fill="#B3B4B7"/>
<path d="M713.828 70.2968V0.300781H643.832V70.2968L678.83 35.2988L713.828 70.2968Z" fill="#B3B4B7"/>
<path d="M807.499 0.300781V70.2968H737.503V46.9593H784.172V23.6328H737.503V0.300781H807.499Z" fill="#B3B4B7"/>
<path d="M550.167 46.9647V70.2912H585.165V46.9647H602.661V23.6326H620.163V0.306152H585.165V23.6326H567.663V46.9647H550.167Z" fill="#B3B4B7"/>
<path d="M409.489 70.2968V23.6328H362.825V0.300781H432.822V70.2968H409.489Z" fill="#B3B4B7"/>
<path d="M456.496 35.2988C456.496 54.6298 472.163 70.2968 491.494 70.2968C510.825 70.2968 526.492 54.6298 526.492 35.2988C526.492 15.9678 510.82 0.300781 491.494 0.300781C472.163 0.300781 456.496 15.9678 456.496 35.2988ZM493.041 46.8598C485.388 47.849 478.938 41.3998 479.928 33.7459C480.596 28.5512 484.802 24.3678 489.997 23.7212C497.612 22.7818 504.006 29.1701 503.061 36.7854C502.425 41.9856 498.236 46.1911 493.041 46.8598Z" fill="#B3B4B7"/>
</g>
<g clip-path="url(#clip1_37_190)">
<path d="M339.151 217.568V287.564H269.155V217.568L304.153 252.566L339.151 217.568Z" fill="#B3B4B7"/>
<path d="M713.828 287.564V217.568H643.832V287.564L678.83 252.566L713.828 287.564Z" fill="#B3B4B7"/>
<path d="M807.499 217.568V287.564H737.503V264.226H784.173V240.9H737.503V217.568H807.499Z" fill="#B3B4B7"/>
<path d="M550.167 264.232V287.558H585.165V264.232H602.661V240.9H620.163V217.573H585.165V240.9H567.663V264.232H550.167Z" fill="#B3B4B7"/>
<path d="M409.49 287.564V240.9H362.826V217.568H432.822V287.564H409.49Z" fill="#B3B4B7"/>
<path d="M456.496 252.566C456.496 271.897 472.163 287.564 491.494 287.564C510.825 287.564 526.492 271.897 526.492 252.566C526.492 233.235 510.82 217.568 491.494 217.568C472.163 217.568 456.496 233.235 456.496 252.566ZM493.042 264.127C485.388 265.116 478.939 258.667 479.928 251.013C480.597 245.818 484.802 241.635 489.997 240.988C497.612 240.049 504.006 246.437 503.061 254.052C502.425 259.253 498.236 263.458 493.042 264.127Z" fill="#B3B4B7"/>
</g>
<g clip-path="url(#clip2_37_190)">
<path d="M339.151 433.004V503H269.155V433.004L304.153 468.002L339.151 433.004Z" fill="#B3B4B7"/>
<path d="M713.828 503V433.004H643.832V503L678.83 468.002L713.828 503Z" fill="#B3B4B7"/>
<path d="M807.499 433.004V503H737.503V479.662H784.173V456.336H737.503V433.004H807.499Z" fill="#B3B4B7"/>
<path d="M550.167 479.668V502.994H585.165V479.668H602.661V456.336H620.163V433.009H585.165V456.336H567.663V479.668H550.167Z" fill="#B3B4B7"/>
<path d="M409.49 503V456.336H362.826V433.004H432.822V503H409.49Z" fill="#B3B4B7"/>
<path d="M456.496 468.002C456.496 487.333 472.163 503 491.494 503C510.825 503 526.492 487.333 526.492 468.002C526.492 448.671 510.82 433.004 491.494 433.004C472.163 433.004 456.496 448.671 456.496 468.002ZM493.042 479.563C485.388 480.552 478.939 474.103 479.928 466.449C480.597 461.254 484.802 457.071 489.997 456.424C497.612 455.485 504.006 461.873 503.061 469.489C502.425 474.689 498.236 478.894 493.042 479.563Z" fill="#B3B4B7"/>
</g>
<g clip-path="url(#clip3_37_190)">
<path d="M436.929 108.937V178.933H366.933V108.937L401.931 143.935L436.929 108.937Z" fill="#B3B4B7"/>
<path d="M811.606 178.933V108.937H741.61V178.933L776.608 143.935L811.606 178.933Z" fill="#B3B4B7"/>
<path d="M905.277 108.937V178.933H835.281V155.595H881.95V132.269H835.281V108.937H905.277Z" fill="#B3B4B7"/>
<path d="M647.945 155.6V178.927H682.943V155.6H700.439V132.268H717.941V108.942H682.943V132.268H665.441V155.6H647.945Z" fill="#B3B4B7"/>
<path d="M507.268 178.933V132.269H460.604V108.937H530.6V178.933H507.268Z" fill="#B3B4B7"/>
<path d="M554.274 143.935C554.274 163.266 569.941 178.933 589.272 178.933C608.603 178.933 624.27 163.266 624.27 143.935C624.27 124.604 608.598 108.937 589.272 108.937C569.941 108.937 554.274 124.604 554.274 143.935ZM590.82 155.496C583.166 156.485 576.716 150.036 577.706 142.382C578.374 137.187 582.58 133.004 587.775 132.357C595.39 131.417 601.784 137.806 600.839 145.421C600.203 150.621 596.014 154.827 590.82 155.496Z" fill="#B3B4B7"/>
</g>
<g clip-path="url(#clip4_37_190)">
<path d="M435.094 326.206V396.202H365.098V326.206L400.096 361.204L435.094 326.206Z" fill="#B3B4B7"/>
<path d="M809.771 396.202V326.206H739.775V396.202L774.773 361.204L809.771 396.202Z" fill="#B3B4B7"/>
<path d="M903.442 326.206V396.202H833.446V372.865H880.115V349.538H833.446V326.206H903.442Z" fill="#B3B4B7"/>
<path d="M646.11 372.87V396.196H681.108V372.87H698.604V349.538H716.106V326.211H681.108V349.538H663.606V372.87H646.11Z" fill="#B3B4B7"/>
<path d="M505.433 396.202V349.538H458.769V326.206H528.765V396.202H505.433Z" fill="#B3B4B7"/>
<path d="M552.439 361.204C552.439 380.535 568.106 396.202 587.437 396.202C606.768 396.202 622.435 380.535 622.435 361.204C622.435 341.873 606.763 326.206 587.437 326.206C568.106 326.206 552.439 341.873 552.439 361.204ZM588.985 372.765C581.331 373.754 574.881 367.305 575.871 359.651C576.539 354.456 580.745 350.273 585.94 349.626C593.555 348.687 599.949 355.075 599.004 362.691C598.368 367.891 594.179 372.096 588.985 372.765Z" fill="#B3B4B7"/>
</g>
</g>
<g opacity="0.06">
<g clip-path="url(#clip5_37_190)">
<path d="M908.876 0.300781V70.2968H838.88V0.300781L873.878 35.2988L908.876 0.300781Z" fill="#B3B4B7"/>
<path d="M1119.89 46.9647V70.2912H1154.89V46.9647H1172.39V23.6326H1189.89V0.306152H1154.89V23.6326H1137.39V46.9647H1119.89Z" fill="#B3B4B7"/>
<path d="M979.215 70.2968V23.6328H932.551V0.300781H1002.55V70.2968H979.215Z" fill="#B3B4B7"/>
<path d="M1026.22 35.2988C1026.22 54.6298 1041.89 70.2968 1061.22 70.2968C1080.55 70.2968 1096.22 54.6298 1096.22 35.2988C1096.22 15.9678 1080.55 0.300781 1061.22 0.300781C1041.89 0.300781 1026.22 15.9678 1026.22 35.2988ZM1062.77 46.8598C1055.11 47.849 1048.66 41.3998 1049.65 33.7459C1050.32 28.5512 1054.53 24.3678 1059.72 23.7212C1067.34 22.7818 1073.73 29.1701 1072.79 36.7854C1072.15 41.9856 1067.96 46.1911 1062.77 46.8598Z" fill="#B3B4B7"/>
</g>
<g clip-path="url(#clip6_37_190)">
<path d="M908.876 217.568V287.564H838.88V217.568L873.878 252.566L908.876 217.568Z" fill="#B3B4B7"/>
<path d="M1119.89 264.232V287.558H1154.89V264.232H1172.39V240.9H1189.89V217.573H1154.89V240.9H1137.39V264.232H1119.89Z" fill="#B3B4B7"/>
<path d="M979.215 287.564V240.9H932.551V217.568H1002.55V287.564H979.215Z" fill="#B3B4B7"/>
<path d="M1026.22 252.566C1026.22 271.897 1041.89 287.564 1061.22 287.564C1080.55 287.564 1096.22 271.897 1096.22 252.566C1096.22 233.235 1080.55 217.568 1061.22 217.568C1041.89 217.568 1026.22 233.235 1026.22 252.566ZM1062.77 264.127C1055.11 265.116 1048.66 258.667 1049.65 251.013C1050.32 245.818 1054.53 241.635 1059.72 240.988C1067.34 240.049 1073.73 246.437 1072.79 254.052C1072.15 259.253 1067.96 263.458 1062.77 264.127Z" fill="#B3B4B7"/>
</g>
<g clip-path="url(#clip7_37_190)">
<path d="M908.876 433.004V503H838.88V433.004L873.878 468.002L908.876 433.004Z" fill="#B3B4B7"/>
<path d="M1119.89 479.668V502.994H1154.89V479.668H1172.39V456.336H1189.89V433.009H1154.89V456.336H1137.39V479.668H1119.89Z" fill="#B3B4B7"/>
<path d="M979.215 503V456.336H932.551V433.004H1002.55V503H979.215Z" fill="#B3B4B7"/>
<path d="M1026.22 468.002C1026.22 487.333 1041.89 503 1061.22 503C1080.55 503 1096.22 487.333 1096.22 468.002C1096.22 448.671 1080.55 433.004 1061.22 433.004C1041.89 433.004 1026.22 448.671 1026.22 468.002ZM1062.77 479.563C1055.11 480.552 1048.66 474.103 1049.65 466.449C1050.32 461.254 1054.53 457.071 1059.72 456.424C1067.34 455.485 1073.73 461.873 1072.79 469.489C1072.15 474.689 1067.96 478.894 1062.77 479.563Z" fill="#B3B4B7"/>
</g>
<g clip-path="url(#clip8_37_190)">
<path d="M1006.65 108.937V178.933H936.657V108.937L971.656 143.935L1006.65 108.937Z" fill="#B3B4B7"/>
<path d="M1076.99 178.933V132.269H1030.33V108.937H1100.32V178.933H1076.99Z" fill="#B3B4B7"/>
<path d="M1124 143.935C1124 163.266 1139.67 178.933 1159 178.933C1178.33 178.933 1193.99 163.266 1193.99 143.935C1193.99 124.604 1178.32 108.937 1159 108.937C1139.67 108.937 1124 124.604 1124 143.935ZM1160.54 155.496C1152.89 156.485 1146.44 150.036 1147.43 142.382C1148.1 137.187 1152.3 133.004 1157.5 132.357C1165.11 131.417 1171.51 137.806 1170.56 145.421C1169.93 150.621 1165.74 154.827 1160.54 155.496Z" fill="#B3B4B7"/>
</g>
<g clip-path="url(#clip9_37_190)">
<path d="M1004.82 326.206V396.202H934.823V326.206L969.821 361.204L1004.82 326.206Z" fill="#B3B4B7"/>
<path d="M1075.16 396.202V349.538H1028.49V326.206H1098.49V396.202H1075.16Z" fill="#B3B4B7"/>
<path d="M1122.16 361.204C1122.16 380.535 1137.83 396.202 1157.16 396.202C1176.49 396.202 1192.16 380.535 1192.16 361.204C1192.16 341.873 1176.49 326.206 1157.16 326.206C1137.83 326.206 1122.16 341.873 1122.16 361.204ZM1158.71 372.765C1151.06 373.754 1144.61 367.305 1145.6 359.651C1146.26 354.456 1150.47 350.273 1155.66 349.626C1163.28 348.687 1169.67 355.075 1168.73 362.691C1168.09 367.891 1163.9 372.096 1158.71 372.765Z" fill="#B3B4B7"/>
</g>
</g>
<g opacity="0.06">
<g clip-path="url(#clip10_37_190)">
<path d="M153.589 70.2968V0.300781H83.5933V70.2968L118.591 35.2988L153.589 70.2968Z" fill="#B3B4B7"/>
<path d="M247.26 0.300781V70.2968H177.264V46.9593H223.933V23.6328H177.264V0.300781H247.26Z" fill="#B3B4B7"/>
<path d="M-10.0718 46.9647V70.2912H24.9263V46.9647H42.4225V23.6326H59.9243V0.306152H24.9263V23.6326H7.42446V46.9647H-10.0718Z" fill="#B3B4B7"/>
</g>
<g clip-path="url(#clip11_37_190)">
<path d="M153.589 287.564V217.568H83.5933V287.564L118.591 252.566L153.589 287.564Z" fill="#B3B4B7"/>
<path d="M247.26 217.568V287.564H177.264V264.226H223.933V240.9H177.264V217.568H247.26Z" fill="#B3B4B7"/>
<path d="M-10.0718 264.232V287.558H24.9263V264.232H42.4225V240.9H59.9243V217.573H24.9263V240.9H7.42446V264.232H-10.0718Z" fill="#B3B4B7"/>
</g>
<g clip-path="url(#clip12_37_190)">
<path d="M153.589 503V433.004H83.5933V503L118.591 468.002L153.589 503Z" fill="#B3B4B7"/>
<path d="M247.26 433.004V503H177.264V479.662H223.933V456.336H177.264V433.004H247.26Z" fill="#B3B4B7"/>
<path d="M-10.0718 479.668V502.994H24.9263V479.668H42.4225V456.336H59.9243V433.009H24.9263V456.336H7.42446V479.668H-10.0718Z" fill="#B3B4B7"/>
</g>
<g clip-path="url(#clip13_37_190)">
<path d="M251.367 178.933V108.937H181.371V178.933L216.369 143.935L251.367 178.933Z" fill="#B3B4B7"/>
<path d="M345.038 108.937V178.933H275.042V155.595H321.711V132.269H275.042V108.937H345.038Z" fill="#B3B4B7"/>
<path d="M87.7061 155.6V178.927H122.704V155.6H140.2V132.268H157.702V108.942H122.704V132.268H105.202V155.6H87.7061Z" fill="#B3B4B7"/>
<path d="M-5.96484 143.935C-5.96484 163.266 9.7022 178.933 29.0332 178.933C48.3642 178.933 64.0312 163.266 64.0312 143.935C64.0312 124.604 48.3586 108.937 29.0332 108.937C9.7022 108.937 -5.96484 124.604 -5.96484 143.935ZM30.5806 155.496C22.9266 156.485 16.4774 150.036 17.4667 142.382C18.1353 137.187 22.3408 133.004 27.5356 132.357C35.1508 131.417 41.5447 137.806 40.5997 145.421C39.9642 150.621 35.7753 154.827 30.5806 155.496Z" fill="#B3B4B7"/>
</g>
<g clip-path="url(#clip14_37_190)">
<path d="M249.532 396.202V326.206H179.536V396.202L214.534 361.204L249.532 396.202Z" fill="#B3B4B7"/>
<path d="M343.203 326.206V396.202H273.207V372.865H319.876V349.538H273.207V326.206H343.203Z" fill="#B3B4B7"/>
<path d="M85.8711 372.87V396.196H120.869V372.87H138.365V349.538H155.867V326.211H120.869V349.538H103.367V372.87H85.8711Z" fill="#B3B4B7"/>
<path d="M-7.7998 361.204C-7.7998 380.535 7.86724 396.202 27.1982 396.202C46.5292 396.202 62.1963 380.535 62.1963 361.204C62.1963 341.873 46.5237 326.206 27.1982 326.206C7.86724 326.206 -7.7998 341.873 -7.7998 361.204ZM28.7456 372.765C21.0917 373.754 14.6425 367.305 15.6317 359.651C16.3004 354.456 20.5059 350.273 25.7006 349.626C33.3158 348.687 39.7098 355.075 38.7648 362.691C38.1293 367.891 33.9403 372.096 28.7456 372.765Z" fill="#B3B4B7"/>
</g>
</g>
<defs>
<clipPath id="clip0_37_190">
<rect width="538.344" height="69.9961" fill="white" transform="translate(269.155 0.300781)"/>
</clipPath>
<clipPath id="clip1_37_190">
<rect width="538.344" height="69.9961" fill="white" transform="translate(269.155 217.568)"/>
</clipPath>
<clipPath id="clip2_37_190">
<rect width="538.344" height="69.9961" fill="white" transform="translate(269.155 433.004)"/>
</clipPath>
<clipPath id="clip3_37_190">
<rect width="538.344" height="69.9961" fill="white" transform="translate(366.933 108.937)"/>
</clipPath>
<clipPath id="clip4_37_190">
<rect width="538.344" height="69.9961" fill="white" transform="translate(365.098 326.206)"/>
</clipPath>
<clipPath id="clip5_37_190">
<rect width="538.344" height="69.9961" fill="white" transform="translate(838.88 0.300781)"/>
</clipPath>
<clipPath id="clip6_37_190">
<rect width="538.344" height="69.9961" fill="white" transform="translate(838.88 217.568)"/>
</clipPath>
<clipPath id="clip7_37_190">
<rect width="538.344" height="69.9961" fill="white" transform="translate(838.88 433.004)"/>
</clipPath>
<clipPath id="clip8_37_190">
<rect width="538.344" height="69.9961" fill="white" transform="translate(936.657 108.937)"/>
</clipPath>
<clipPath id="clip9_37_190">
<rect width="538.344" height="69.9961" fill="white" transform="translate(934.823 326.206)"/>
</clipPath>
<clipPath id="clip10_37_190">
<rect width="538.344" height="69.9961" fill="white" transform="translate(-291.084 0.300781)"/>
</clipPath>
<clipPath id="clip11_37_190">
<rect width="538.344" height="69.9961" fill="white" transform="translate(-291.084 217.568)"/>
</clipPath>
<clipPath id="clip12_37_190">
<rect width="538.344" height="69.9961" fill="white" transform="translate(-291.084 433.004)"/>
</clipPath>
<clipPath id="clip13_37_190">
<rect width="538.344" height="69.9961" fill="white" transform="translate(-193.306 108.937)"/>
</clipPath>
<clipPath id="clip14_37_190">
<rect width="538.344" height="69.9961" fill="white" transform="translate(-195.141 326.206)"/>
</clipPath>
</defs>
</svg>
