<svg width="612" height="119" viewBox="0 0 612 119" fill="none" xmlns="http://www.w3.org/2000/svg">
<path d="M613.742 149V0H464.742V149L539.242 74.5L613.742 149Z" fill="url(#paint0_linear_4374_17617)"/>
<path d="M309.836 99.333V148.988H384.336V99.333H421.58V49.6664H458.836V0.0114746H384.336V49.6664H347.08V99.333H309.836Z" fill="url(#paint1_linear_4374_17617)"/>
<path d="M99.3333 149V49.6667H0V0H149V149H99.3333Z" fill="url(#paint2_linear_4374_17617)"/>
<path d="M154.917 74.5C154.917 115.65 188.267 149 229.416 149C270.566 149 303.917 115.65 303.917 74.5C303.917 33.3503 270.554 0 229.416 0C188.267 0 154.917 33.3503 154.917 74.5ZM232.71 99.1098C216.418 101.216 202.689 87.4872 204.795 71.1944C206.218 60.1364 215.171 51.2312 226.229 49.8549C242.439 47.855 256.05 61.454 254.038 77.6645C252.685 88.7342 243.768 97.6864 232.71 99.1098Z" fill="url(#paint3_linear_4374_17617)"/>
<defs>
<linearGradient id="paint0_linear_4374_17617" x1="539" y1="51.5" x2="465" y2="131" gradientUnits="userSpaceOnUse">
<stop stop-color="#FFD555"/>
<stop offset="1" stop-color="#C79600"/>
</linearGradient>
<linearGradient id="paint1_linear_4374_17617" x1="433.336" y1="0.0114774" x2="329.501" y2="133.501" gradientUnits="userSpaceOnUse">
<stop stop-color="#886EF7"/>
<stop offset="1" stop-color="#603EF4"/>
</linearGradient>
<linearGradient id="paint2_linear_4374_17617" x1="1.9229e-06" y1="21" x2="121.5" y2="125.5" gradientUnits="userSpaceOnUse">
<stop stop-color="#D17FFA"/>
<stop offset="1" stop-color="#9807DC"/>
</linearGradient>
<linearGradient id="paint3_linear_4374_17617" x1="297.5" y1="-2.67522e-06" x2="183" y2="160.5" gradientUnits="userSpaceOnUse">
<stop stop-color="#FCBD9A"/>
<stop offset="1" stop-color="#C64C06"/>
</linearGradient>
</defs>
</svg>
