<svg width="72" height="72" viewBox="0 0 72 72" fill="none" xmlns="http://www.w3.org/2000/svg">
<path fill-rule="evenodd" clip-rule="evenodd" d="M35.9998 71.1998C55.4402 71.1998 71.1998 55.4402 71.1998 35.9998C71.1998 16.5594 55.4402 0.799805 35.9998 0.799805C16.5594 0.799805 0.799805 16.5594 0.799805 35.9998C0.799805 55.4402 16.5594 71.1998 35.9998 71.1998ZM34.0405 23.5388C32.6903 22.6387 30.9543 22.5548 29.5236 23.3204C28.0929 24.0861 27.1998 25.5771 27.1998 27.1998V44.7998C27.1998 46.4225 28.0929 47.9135 29.5236 48.6792C30.9543 49.4449 32.6903 49.3609 34.0405 48.4608L47.2405 39.6608C48.4646 38.8448 49.1998 37.471 49.1998 35.9998C49.1998 34.5287 48.4646 33.1548 47.2405 32.3388L34.0405 23.5388Z" fill="white"/>
</svg>
