<svg id="wave" style="transform:rotate(0deg) scaleX(-1); transition: 0.3s" viewBox="0 0 1440 460" version="1.1" xmlns="http://www.w3.org/2000/svg"><defs><linearGradient id="sw-gradient-0" x1="0" x2="0" y1="1" y2="0"><stop stop-color="rgba(79, 41, 243, 1)" offset="0%"></stop><stop stop-color="rgba(79, 41, 243, 1)" offset="100%"></stop></linearGradient></defs><path style="transform:translate(0, 0px); opacity:1" fill="url(#sw-gradient-0)" d="M0,46L120,107.3C240,169,480,291,720,299C960,307,1200,199,1440,176.3C1680,153,1920,215,2160,245.3C2400,276,2640,276,2880,230C3120,184,3360,92,3600,84.3C3840,77,4080,153,4320,161C4560,169,4800,107,5040,92C5280,77,5520,107,5760,145.7C6000,184,6240,230,6480,253C6720,276,6960,276,7200,237.7C7440,199,7680,123,7920,76.7C8160,31,8400,15,8640,46C8880,77,9120,153,9360,199.3C9600,245,9840,261,10080,245.3C10320,230,10560,184,10800,184C11040,184,11280,230,11520,253C11760,276,12000,276,12240,230C12480,184,12720,92,12960,107.3C13200,123,13440,245,13680,253C13920,261,14160,153,14400,122.7C14640,92,14880,138,15120,153.3C15360,169,15600,153,15840,138C16080,123,16320,107,16560,107.3C16800,107,17040,123,17160,130.3L17280,138L17280,460L17160,460C17040,460,16800,460,16560,460C16320,460,16080,460,15840,460C15600,460,15360,460,15120,460C14880,460,14640,460,14400,460C14160,460,13920,460,13680,460C13440,460,13200,460,12960,460C12720,460,12480,460,12240,460C12000,460,11760,460,11520,460C11280,460,11040,460,10800,460C10560,460,10320,460,10080,460C9840,460,9600,460,9360,460C9120,460,8880,460,8640,460C8400,460,8160,460,7920,460C7680,460,7440,460,7200,460C6960,460,6720,460,6480,460C6240,460,6000,460,5760,460C5520,460,5280,460,5040,460C4800,460,4560,460,4320,460C4080,460,3840,460,3600,460C3360,460,3120,460,2880,460C2640,460,2400,460,2160,460C1920,460,1680,460,1440,460C1200,460,960,460,720,460C480,460,240,460,120,460L0,460Z"></path></svg>