<svg width="412" height="52" viewBox="0 0 412 52" fill="none" xmlns="http://www.w3.org/2000/svg">
<path d="M342.129 0V51.8603H290.269V0L316.199 25.9302L342.129 0Z" fill="#B3B4B7"/>
<path d="M394.243 51.8603V17.2868H359.67V0H411.53V51.8603H394.243Z" fill="#B3B4B7"/>
<path d="M190.658 51.8603V0H138.798V51.8603L164.728 25.9302L190.658 51.8603Z" fill="#B3B4B7"/>
<path d="M260.06 0V51.8603H208.199V34.5695H242.777V17.2868H208.199V0H260.06Z" fill="#B3B4B7"/>
<path d="M69.4014 34.5734V51.8561H95.3315V34.5734H108.295V17.2866H121.262V0.00390625H95.3315V17.2866H82.3644V34.5734H69.4014Z" fill="#B3B4B7"/>
<path d="M0 25.9302C0 40.2526 11.6078 51.8603 25.9302 51.8603C40.2526 51.8603 51.8603 40.2526 51.8603 25.9302C51.8603 11.6078 40.2485 0 25.9302 0C11.6078 0 0 11.6078 0 25.9302ZM27.0766 34.4958C21.4058 35.2287 16.6276 30.4504 17.3605 24.7796C17.8559 20.9308 20.9718 17.8313 24.8206 17.3523C30.4627 16.6562 35.2 21.3894 34.4999 27.0316C34.029 30.8845 30.9254 34.0003 27.0766 34.4958Z" fill="#B3B4B7"/>
</svg>
