<svg width="191" height="76" viewBox="0 0 191 76" fill="none" xmlns="http://www.w3.org/2000/svg">
<path d="M4.244 74C4.244 70.672 4.66 67.696 5.492 65.072C6.388 62.448 7.54 60.08 8.948 57.968C10.42 55.856 12.02 53.904 13.748 52.112C15.54 50.32 17.364 48.56 19.22 46.832C23.892 42.48 27.188 38.544 29.108 35.024C31.092 31.504 32.084 28.016 32.084 24.56C32.084 22.512 31.828 20.528 31.316 18.608C30.804 16.688 29.876 15.12 28.532 13.904C27.188 12.624 25.3 12.016 22.868 12.08C21.14 12.08 19.572 12.496 18.164 13.328C16.82 14.096 15.796 15.024 15.092 16.112C15.796 16.816 16.276 17.648 16.532 18.608C16.852 19.568 17.012 20.4 17.012 21.104C17.012 21.808 16.788 22.672 16.34 23.696C15.892 24.656 15.188 25.488 14.228 26.192C13.332 26.896 12.084 27.248 10.484 27.248C8.5 27.12 6.964 26.384 5.876 25.04C4.852 23.696 4.34 22.096 4.34 20.24C4.34 18.768 4.788 17.2 5.684 15.536C6.58 13.808 7.924 12.176 9.716 10.64C11.508 9.04 13.684 7.75999 16.244 6.8C18.868 5.776 21.876 5.264 25.268 5.264C27.828 5.264 30.356 5.584 32.852 6.224C35.412 6.864 37.748 7.888 39.86 9.296C41.972 10.704 43.636 12.56 44.852 14.864C46.132 17.168 46.772 20.016 46.772 23.408C46.772 25.008 46.484 26.704 45.908 28.496C45.332 30.224 44.276 32.144 42.74 34.256C41.204 36.304 39.06 38.672 36.308 41.36C33.556 44.048 30.004 47.184 25.652 50.768C22.132 53.648 19.54 56.272 17.876 58.64C16.212 61.008 15.22 62.832 14.9 64.112L33.716 64.592C35.188 64.656 36.436 64.56 37.46 64.304C38.548 63.984 39.38 63.376 39.956 62.48C40.596 61.52 40.916 60.144 40.916 58.352H47.06L46.292 74H4.244ZM60.0395 75.536C57.9915 75.536 56.2955 74.8 54.9515 73.328C53.6715 71.856 53.0315 70.096 53.0315 68.048C53.0315 66 53.7355 64.24 55.1435 62.768C56.5515 61.296 58.1835 60.56 60.0395 60.56C62.0235 60.56 63.6555 61.296 64.9355 62.768C66.2795 64.24 66.9515 66 66.9515 68.048C66.9515 70.096 66.3115 71.856 65.0315 73.328C63.8155 74.8 62.1515 75.536 60.0395 75.536ZM92.3337 75.536C88.1737 75.536 84.6217 74.864 81.6777 73.52C78.7337 72.176 76.4617 70.512 74.8617 68.528C73.3257 66.48 72.5577 64.432 72.5577 62.384C72.5577 60.528 73.1337 58.864 74.2857 57.392C75.4377 55.92 77.0057 55.152 78.9897 55.088C80.5897 55.024 81.8377 55.344 82.7337 56.048C83.6297 56.688 84.2697 57.488 84.6537 58.448C85.0377 59.408 85.2297 60.336 85.2297 61.232C85.2297 61.744 85.1337 62.384 84.9417 63.152C84.8137 63.856 84.5577 64.528 84.1737 65.168C84.4937 65.872 85.0697 66.512 85.9017 67.088C86.7337 67.6 87.6617 68.016 88.6857 68.336C89.7737 68.592 90.7657 68.72 91.6617 68.72C94.2217 68.72 96.2697 68.048 97.8057 66.704C99.4057 65.36 100.558 63.632 101.262 61.52C101.966 59.408 102.318 57.264 102.318 55.088C102.318 53.616 102.222 51.952 102.03 50.096C101.838 48.24 101.358 46.416 100.59 44.624C99.8857 42.832 98.7337 41.36 97.1337 40.208C95.5977 39.056 93.4857 38.48 90.7977 38.48C89.9017 38.48 88.8457 38.608 87.6297 38.864C86.4137 39.056 85.0697 39.408 83.5977 39.92C82.1897 40.432 80.7497 41.136 79.2777 42.032L75.1497 38.864L74.7657 6.8H99.6297C101.87 6.8 103.63 6.448 104.91 5.744C106.254 4.976 106.926 3.248 106.926 0.559996H112.974L112.302 16.112L82.1577 16.688V33.776C83.6297 33.136 85.4537 32.592 87.6297 32.144C89.8057 31.696 91.8537 31.472 93.7737 31.472C97.7417 31.472 101.198 32.048 104.142 33.2C107.086 34.352 109.518 35.952 111.438 38C113.358 39.984 114.766 42.288 115.662 44.912C116.622 47.472 117.102 50.192 117.102 53.072C117.102 58 115.886 62.16 113.454 65.552C111.086 68.88 108.014 71.376 104.238 73.04C100.462 74.704 96.4937 75.536 92.3337 75.536Z" fill="#1D1C1D"/>
<path d="M144.276 64.088L140.564 60.76L176.916 17.176L181.012 20.824L144.276 64.088ZM146.964 42.008C144.361 42.008 142.164 41.432 140.372 40.28C138.623 39.0853 137.279 37.5707 136.34 35.736C135.444 33.8587 134.996 31.8747 134.996 29.784C134.996 27.7787 135.465 25.8373 136.404 23.96C137.343 22.04 138.687 20.44 140.436 19.16C142.228 17.88 144.361 17.2187 146.836 17.176C149.481 17.1333 151.7 17.7093 153.492 18.904C155.284 20.0987 156.628 21.6347 157.524 23.512C158.42 25.3467 158.868 27.2453 158.868 29.208C158.868 31.4267 158.335 33.5173 157.268 35.48C156.201 37.4427 154.772 39.0213 152.98 40.216C151.188 41.4107 149.183 42.008 146.964 42.008ZM147.028 37.72C148.265 37.72 149.225 37.336 149.908 36.568C150.591 35.7573 151.081 34.776 151.38 33.624C151.679 32.4293 151.828 31.2773 151.828 30.168C151.828 29.272 151.743 28.312 151.572 27.288C151.444 26.2213 151.188 25.24 150.804 24.344C150.42 23.4053 149.908 22.6587 149.268 22.104C148.628 21.5067 147.839 21.208 146.9 21.208C145.961 21.208 145.172 21.4853 144.532 22.04C143.935 22.552 143.444 23.2133 143.06 24.024C142.719 24.792 142.463 25.624 142.292 26.52C142.164 27.3733 142.1 28.1413 142.1 28.824C142.1 29.6773 142.164 30.6373 142.292 31.704C142.463 32.728 142.719 33.688 143.06 34.584C143.401 35.48 143.892 36.2267 144.532 36.824C145.172 37.4213 146.004 37.72 147.028 37.72ZM175.316 64.024C172.713 64.024 170.516 63.448 168.724 62.296C166.932 61.144 165.588 59.6293 164.692 57.752C163.796 55.8747 163.348 53.912 163.348 51.864C163.348 49.816 163.839 47.832 164.82 45.912C165.801 43.992 167.188 42.4133 168.98 41.176C170.772 39.896 172.863 39.2347 175.252 39.192C177.855 39.192 180.031 39.7893 181.78 40.984C183.529 42.136 184.852 43.6507 185.748 45.528C186.687 47.4053 187.156 49.3253 187.156 51.288C187.156 53.4213 186.644 55.4693 185.62 57.432C184.639 59.352 183.252 60.9307 181.46 62.168C179.711 63.4053 177.663 64.024 175.316 64.024ZM175.38 59.864C176.319 59.864 177.087 59.6293 177.684 59.16C178.324 58.648 178.815 58.008 179.156 57.24C179.54 56.4293 179.796 55.5973 179.924 54.744C180.052 53.848 180.116 53.0373 180.116 52.312C180.116 51.3733 180.031 50.392 179.86 49.368C179.732 48.344 179.476 47.384 179.092 46.488C178.751 45.5493 178.26 44.8027 177.62 44.248C176.98 43.6507 176.191 43.352 175.252 43.352C174.015 43.352 173.033 43.7787 172.308 44.632C171.625 45.4853 171.135 46.5093 170.836 47.704C170.537 48.856 170.388 49.9227 170.388 50.904C170.388 51.8 170.452 52.76 170.58 53.784C170.751 54.808 171.028 55.7893 171.412 56.728C171.796 57.624 172.308 58.3707 172.948 58.968C173.588 59.5653 174.399 59.864 175.38 59.864Z" fill="#1D1C1D"/>
</svg>
