<svg width="1348" height="576" viewBox="0 0 1348 576" fill="none" xmlns="http://www.w3.org/2000/svg">
<g style="mix-blend-mode:color-dodge" opacity="0.3">
<rect x="1154.83" y="-98.834" width="136" height="136" transform="rotate(45 1154.83 -98.834)" stroke="#4F29F3"/>
</g>
<g style="mix-blend-mode:color-dodge" opacity="0.3">
<rect x="962.5" y="-98.834" width="136" height="136" transform="rotate(45 962.5 -98.834)" stroke="#4F29F3"/>
</g>
<g style="mix-blend-mode:color-dodge" opacity="0.3">
<rect x="1058.67" y="-2.66797" width="136" height="136" transform="rotate(45 1058.67 -2.66797)" stroke="#4F29F3"/>
</g>
<g style="mix-blend-mode:color-dodge" opacity="0.3">
<rect x="770.167" y="-98.834" width="136" height="136" transform="rotate(45 770.167 -98.834)" stroke="#4F29F3"/>
</g>
<g style="mix-blend-mode:color-dodge" opacity="0.3">
<rect x="866.333" y="-2.66699" width="136" height="136" transform="rotate(45 866.333 -2.66699)" stroke="#4F29F3"/>
</g>
<g style="mix-blend-mode:color-dodge" opacity="0.3">
<rect x="962.5" y="93.499" width="136" height="136" transform="rotate(45 962.5 93.499)" stroke="#4F29F3"/>
</g>
<g style="mix-blend-mode:color-dodge" opacity="0.3">
<rect x="577.833" y="-98.834" width="136" height="136" transform="rotate(45 577.833 -98.834)" stroke="#4F29F3"/>
</g>
<g style="mix-blend-mode:color-dodge" opacity="0.3">
<rect x="674" y="-2.66797" width="136" height="136" transform="rotate(45 674 -2.66797)" stroke="#4F29F3"/>
</g>
<g style="mix-blend-mode:color-dodge" opacity="0.3">
<rect x="770.167" y="93.499" width="136" height="136" transform="rotate(45 770.167 93.499)" stroke="#4F29F3"/>
</g>
<g style="mix-blend-mode:color-dodge" opacity="0.3">
<rect x="866.333" y="189.665" width="136" height="136" transform="rotate(45 866.333 189.665)" stroke="#4F29F3"/>
</g>
<g style="mix-blend-mode:color-dodge" opacity="0.3">
<rect x="385.5" y="-98.834" width="136" height="136" transform="rotate(45 385.5 -98.834)" stroke="#4F29F3"/>
</g>
<g style="mix-blend-mode:color-dodge" opacity="0.3">
<rect x="481.667" y="-2.66699" width="136" height="136" transform="rotate(45 481.667 -2.66699)" stroke="#4F29F3"/>
</g>
<g style="mix-blend-mode:color-dodge" opacity="0.3">
<rect x="577.833" y="93.499" width="136" height="136" transform="rotate(45 577.833 93.499)" stroke="#4F29F3"/>
</g>
<g style="mix-blend-mode:color-dodge" opacity="0.3">
<rect x="674" y="189.666" width="136" height="136" transform="rotate(45 674 189.666)" stroke="#4F29F3"/>
</g>
<g style="mix-blend-mode:color-dodge" opacity="0.3">
<rect x="770.166" y="285.832" width="136" height="136" transform="rotate(45 770.166 285.832)" stroke="#4F29F3"/>
</g>
<g style="mix-blend-mode:color-dodge" opacity="0.3">
<rect x="193.167" y="-98.834" width="136" height="136" transform="rotate(45 193.167 -98.834)" stroke="#4F29F3"/>
</g>
<g style="mix-blend-mode:color-dodge" opacity="0.3">
<rect x="289.334" y="-2.66797" width="136" height="136" transform="rotate(45 289.334 -2.66797)" stroke="#4F29F3"/>
</g>
<g style="mix-blend-mode:color-dodge" opacity="0.3">
<rect x="385.5" y="93.499" width="136" height="136" transform="rotate(45 385.5 93.499)" stroke="#4F29F3"/>
</g>
<g style="mix-blend-mode:color-dodge" opacity="0.3">
<rect x="481.667" y="189.665" width="136" height="136" transform="rotate(45 481.667 189.665)" stroke="#4F29F3"/>
</g>
<g style="mix-blend-mode:color-dodge" opacity="0.3">
<rect x="577.833" y="285.832" width="136" height="136" transform="rotate(45 577.833 285.832)" stroke="#4F29F3"/>
</g>
<g style="mix-blend-mode:color-dodge" opacity="0.3">
<rect x="674" y="381.998" width="136" height="136" transform="rotate(45 674 381.998)" stroke="#4F29F3"/>
</g>
</svg>
