<svg width="169" height="71" viewBox="0 0 169 71" fill="none" xmlns="http://www.w3.org/2000/svg">
<path d="M8.18 69V62.664C9.652 62.6 10.868 62.408 11.828 62.088C12.852 61.768 13.62 61.032 14.132 59.88C14.708 58.728 14.996 56.872 14.996 54.312V15.816L4.532 22.056L1.076 16.296L23.06 0.263998H28.82V53.256C28.82 54.984 28.788 56.648 28.724 58.248C28.724 59.848 28.66 61.064 28.532 61.896C29.556 61.768 30.836 61.704 32.372 61.704C33.972 61.64 35.092 61.608 35.732 61.608V69H8.18ZM67.148 70.536C62.284 70.536 58.156 69.512 54.764 67.464C51.372 65.352 48.652 62.6 46.604 59.208C44.556 55.752 43.052 51.976 42.092 47.88C41.196 43.784 40.748 39.72 40.748 35.688C40.748 31.656 41.292 27.56 42.38 23.4C43.532 19.24 45.228 15.432 47.468 11.976C49.708 8.456 52.492 5.64 55.82 3.528C59.148 1.352 63.052 0.263998 67.532 0.263998C72.204 0.263998 76.172 1.32 79.436 3.432C82.764 5.544 85.452 8.328 87.5 11.784C89.548 15.176 91.052 18.92 92.012 23.016C92.972 27.112 93.452 31.176 93.452 35.208C93.452 39.176 92.908 43.24 91.82 47.4C90.796 51.56 89.196 55.4 87.02 58.92C84.844 62.376 82.092 65.192 78.764 67.368C75.5 69.48 71.628 70.536 67.148 70.536ZM67.724 63.72C69.964 63.72 71.82 63.016 73.292 61.608C74.764 60.2 75.884 58.28 76.652 55.848C77.484 53.352 78.06 50.504 78.38 47.304C78.7 44.104 78.86 40.744 78.86 37.224C78.86 33.32 78.7 29.576 78.38 25.992C78.124 22.344 77.58 19.112 76.748 16.296C75.98 13.416 74.828 11.144 73.292 9.48C71.82 7.816 69.836 6.984 67.34 6.984C65.036 6.984 63.116 7.688 61.58 9.096C60.044 10.504 58.796 12.456 57.836 14.952C56.94 17.448 56.3 20.296 55.916 23.496C55.532 26.696 55.34 30.088 55.34 33.672C55.34 36.36 55.404 39.112 55.532 41.928C55.724 44.744 56.044 47.464 56.492 50.088C57.004 52.648 57.708 54.952 58.604 57C59.5 59.048 60.684 60.68 62.156 61.896C63.692 63.112 65.548 63.72 67.724 63.72Z" fill="#1D1C1D"/>
<path d="M122.276 59.088L118.564 55.76L154.916 12.176L159.012 15.824L122.276 59.088ZM124.964 37.008C122.361 37.008 120.164 36.432 118.372 35.28C116.623 34.0853 115.279 32.5707 114.34 30.736C113.444 28.8587 112.996 26.8747 112.996 24.784C112.996 22.7787 113.465 20.8373 114.404 18.96C115.343 17.04 116.687 15.44 118.436 14.16C120.228 12.88 122.361 12.2187 124.836 12.176C127.481 12.1333 129.7 12.7093 131.492 13.904C133.284 15.0987 134.628 16.6347 135.524 18.512C136.42 20.3467 136.868 22.2453 136.868 24.208C136.868 26.4267 136.335 28.5173 135.268 30.48C134.201 32.4427 132.772 34.0213 130.98 35.216C129.188 36.4107 127.183 37.008 124.964 37.008ZM125.028 32.72C126.265 32.72 127.225 32.336 127.908 31.568C128.591 30.7573 129.081 29.776 129.38 28.624C129.679 27.4293 129.828 26.2773 129.828 25.168C129.828 24.272 129.743 23.312 129.572 22.288C129.444 21.2213 129.188 20.24 128.804 19.344C128.42 18.4053 127.908 17.6587 127.268 17.104C126.628 16.5067 125.839 16.208 124.9 16.208C123.961 16.208 123.172 16.4853 122.532 17.04C121.935 17.552 121.444 18.2133 121.06 19.024C120.719 19.792 120.463 20.624 120.292 21.52C120.164 22.3733 120.1 23.1413 120.1 23.824C120.1 24.6773 120.164 25.6373 120.292 26.704C120.463 27.728 120.719 28.688 121.06 29.584C121.401 30.48 121.892 31.2267 122.532 31.824C123.172 32.4213 124.004 32.72 125.028 32.72ZM153.316 59.024C150.713 59.024 148.516 58.448 146.724 57.296C144.932 56.144 143.588 54.6293 142.692 52.752C141.796 50.8747 141.348 48.912 141.348 46.864C141.348 44.816 141.839 42.832 142.82 40.912C143.801 38.992 145.188 37.4133 146.98 36.176C148.772 34.896 150.863 34.2347 153.252 34.192C155.855 34.192 158.031 34.7893 159.78 35.984C161.529 37.136 162.852 38.6507 163.748 40.528C164.687 42.4053 165.156 44.3253 165.156 46.288C165.156 48.4213 164.644 50.4693 163.62 52.432C162.639 54.352 161.252 55.9307 159.46 57.168C157.711 58.4053 155.663 59.024 153.316 59.024ZM153.38 54.864C154.319 54.864 155.087 54.6293 155.684 54.16C156.324 53.648 156.815 53.008 157.156 52.24C157.54 51.4293 157.796 50.5973 157.924 49.744C158.052 48.848 158.116 48.0373 158.116 47.312C158.116 46.3733 158.031 45.392 157.86 44.368C157.732 43.344 157.476 42.384 157.092 41.488C156.751 40.5493 156.26 39.8027 155.62 39.248C154.98 38.6507 154.191 38.352 153.252 38.352C152.015 38.352 151.033 38.7787 150.308 39.632C149.625 40.4853 149.135 41.5093 148.836 42.704C148.537 43.856 148.388 44.9227 148.388 45.904C148.388 46.8 148.452 47.76 148.58 48.784C148.751 49.808 149.028 50.7893 149.412 51.728C149.796 52.624 150.308 53.3707 150.948 53.968C151.588 54.5653 152.399 54.864 153.38 54.864Z" fill="#1D1C1D"/>
</svg>
