<svg
        xmlns="http://www.w3.org/2000/svg"
        width="96"
        height="96"
        viewBox="0 0 96 96"
        fill="none"
>
    <g style="mix-blend-mode:hard-light" opacity="0.7">
        <path
                d="M48 16.8889C48 11.9797 51.9797 8 56.8889 8C61.7981 8 65.7778 11.9797 65.7778 16.8889V21.3333C65.7778 23.7879 67.7676 25.7778 70.2222 25.7778H83.5556C86.0102 25.7778 88 27.7676 88 30.2222V43.5556C88 46.0102 86.0102 48 83.5556 48H79.1111C74.2019 48 70.2222 51.9797 70.2222 56.8889C70.2222 61.7981 74.2019 65.7778 79.1111 65.7778H83.5556C86.0102 65.7778 88 67.7676 88 70.2222V83.5556C88 86.0102 86.0102 88 83.5556 88H70.2222C67.7676 88 65.7778 86.0102 65.7778 83.5556V79.1111C65.7778 74.2019 61.7981 70.2222 56.8889 70.2222C51.9797 70.2222 48 74.2019 48 79.1111V83.5556C48 86.0102 46.0102 88 43.5556 88H30.2222C27.7676 88 25.7778 86.0102 25.7778 83.5556V70.2222C25.7778 67.7676 23.7879 65.7778 21.3333 65.7778H16.8889C11.9797 65.7778 8 61.7981 8 56.8889C8 51.9797 11.9797 48 16.8889 48H21.3333C23.7879 48 25.7778 46.0102 25.7778 43.5556V30.2222C25.7778 27.7676 27.7676 25.7778 30.2222 25.7778H43.5556C46.0102 25.7778 48 23.7879 48 21.3333V16.8889Z"
                fill="#4F29F3"
        />
    </g>
</svg>